<svg xmlns="http://www.w3.org/2000/svg" xmlns:xlink="http://www.w3.org/1999/xlink" viewBox="0 0 1024 492.4"><defs><style>.cls-1,.cls-13{fill:#fff;}.cls-1,.cls-30,.cls-33,.cls-36{fill-rule:evenodd;}.cls-2{fill:#f1f1f1;}.cls-25,.cls-3{fill:#ccc;}.cls-11,.cls-12,.cls-14,.cls-16,.cls-17,.cls-20,.cls-23,.cls-28,.cls-29,.cls-4,.cls-5,.cls-7,.cls-9{fill:none;}.cls-25,.cls-4{stroke:#ccc;}.cls-12,.cls-14,.cls-20,.cls-23,.cls-25,.cls-28,.cls-29,.cls-4,.cls-5,.cls-7,.cls-9{stroke-linecap:round;}.cls-11,.cls-14,.cls-16,.cls-17,.cls-20,.cls-23,.cls-25,.cls-4,.cls-5,.cls-7,.cls-9{stroke-miterlimit:10;}.cls-4,.cls-5{stroke-width:4px;}.cls-12,.cls-20,.cls-5{stroke:#222;}.cls-5{stroke-dasharray:0.02 7.74;}.cls-6{fill:#ead7e6;}.cls-7{stroke:#953984;}.cls-11,.cls-14,.cls-16,.cls-23,.cls-7,.cls-9{stroke-width:2px;}.cls-8{fill:#cfdbea;}.cls-9{stroke:#114d97;}.cls-10{fill:#c9e7f4;}.cls-11,.cls-17{stroke:#1d9cd3;}.cls-12,.cls-28,.cls-29{stroke-linejoin:round;}.cls-12,.cls-20{stroke-width:1.5px;}.cls-14,.cls-16{stroke:#666;}.cls-15{fill:#e6e6e6;}.cls-17{stroke-width:1.25px;}.cls-18{fill:#222;}.cls-19{fill:#1d9cd3;}.cls-21{fill:#114d97;}.cls-22{fill:#d6e2fa;}.cls-23{stroke:#326de6;}.cls-24{fill:#326de6;}.cls-25{stroke-width:3.96px;}.cls-26{fill:#999;}.cls-27{fill:#009639;}.cls-28,.cls-29{stroke:#fff;}.cls-28{stroke-width:2.99px;}.cls-29{stroke-width:1.99px;}.cls-30{fill:#953984;}.cls-31{mask:url(#mask);}.cls-32{mask:url(#mask-2-2);}.cls-33{fill:#ac6199;}.cls-34{mask:url(#mask-3);}.cls-35{mask:url(#mask-4-2);}.cls-36{fill:#c04589;}</style><mask id="mask" x="174" y="193.33" width="27.99" height="26.85" maskUnits="userSpaceOnUse"><g id="mask-2"><polygon id="path-1" class="cls-1" points="174 193.33 174 220.18 201.99 220.18 201.99 193.33 174 193.33"/></g></mask><mask id="mask-2-2" x="174" y="193.33" width="27.99" height="26.87" maskUnits="userSpaceOnUse"><g id="mask-2-3" data-name="mask-2"><polygon id="path-1-2" data-name="path-1" class="cls-1" points="174 193.33 174 220.18 201.99 220.18 201.99 193.33 174 193.33"/></g></mask><mask id="mask-3" x="184.65" y="168.48" width="58.66" height="49.88" maskUnits="userSpaceOnUse"><g id="mask-4"><polygon id="path-3" class="cls-1" points="184.65 168.48 243.31 168.48 243.31 218.36 184.65 218.36 184.65 168.48"/></g></mask><mask id="mask-4-2" x="184.65" y="168.48" width="58.66" height="49.88" maskUnits="userSpaceOnUse"><g id="mask-4-3" data-name="mask-4"><polygon id="path-3-2" data-name="path-3" class="cls-1" points="184.65 168.48 243.31 168.48 243.31 218.36 184.65 218.36 184.65 168.48"/></g></mask></defs><g id="art"><rect class="cls-2" x="-1" y="-0.24" width="1026" height="494.74"/><path class="cls-3" d="M723.8,441.11H80.87a10,10,0,0,1-10-10V60.8a10,10,0,0,1,10-10H723.8a10,10,0,0,1,10,10V431.11A10,10,0,0,1,723.8,441.11Z"/><path class="cls-4" d="M723.8,441.11H80.87a10,10,0,0,1-10-10V60.8a10,10,0,0,1,10-10H723.8a10,10,0,0,1,10,10V431.11A10,10,0,0,1,723.8,441.11Z"/><path class="cls-5" d="M723.8,441.11H80.87a10,10,0,0,1-10-10V60.8a10,10,0,0,1,10-10H723.8a10,10,0,0,1,10,10V431.11A10,10,0,0,1,723.8,441.11Z"/><rect class="cls-6" x="156.74" y="144.06" width="110.24" height="127.04" rx="5"/><rect class="cls-7" x="156.74" y="144.06" width="110.24" height="127.04" rx="5"/><rect class="cls-8" x="834.27" y="231.73" width="165.39" height="90.68" rx="4.99"/><rect class="cls-9" x="834.27" y="231.73" width="165.39" height="90.68" rx="4.99"/><rect class="cls-10" x="420.1" y="319.49" width="121.36" height="36.13" rx="2.5"/><rect class="cls-11" x="420.1" y="319.49" width="121.36" height="36.13" rx="2.5"/><line class="cls-12" x1="277.97" y1="190.64" x2="386.61" y2="190.64"/><line class="cls-12" x1="386.61" y1="190.64" x2="380.67" y2="184.71"/><line class="cls-12" x1="386.61" y1="190.64" x2="380.67" y2="196.57"/><line class="cls-12" x1="362.02" y1="358.81" x2="384.7" y2="358.81"/><line class="cls-12" x1="386.61" y1="358.81" x2="380.67" y2="352.88"/><line class="cls-12" x1="386.61" y1="358.81" x2="380.67" y2="364.74"/><line class="cls-12" x1="633.43" y1="342.87" x2="633.43" y2="285.53"/><line class="cls-12" x1="633.43" y1="283.63" x2="627.5" y2="289.56"/><line class="cls-12" x1="633.43" y1="283.63" x2="639.36" y2="289.56"/><rect class="cls-13" x="398.02" y="116.14" width="143.45" height="182.1" rx="5"/><rect class="cls-14" x="398.02" y="116.14" width="143.45" height="182.1" rx="5"/><rect class="cls-15" x="419.27" y="172.84" width="100.94" height="104.14" rx="5.01"/><rect class="cls-16" x="419.27" y="172.84" width="100.94" height="104.14" rx="5.01"/><rect class="cls-10" x="429.9" y="183.47" width="79.69" height="36.13" rx="2.5"/><rect class="cls-17" x="429.9" y="183.47" width="79.69" height="36.13" rx="2.5"/><path class="cls-18" d="M467.08,195.6h4.09a3.74,3.74,0,0,1,0,7.47h-2.09v4.54h-2Zm3.85,1.75h-1.85v4h1.85a2,2,0,0,0,0-4Z"/><path class="cls-18" d="M475.47,203.25c0-2.45,1.3-4.55,3.76-4.55s3.77,2.1,3.77,4.55-1.3,4.58-3.77,4.58S475.47,205.7,475.47,203.25Zm5.67,0c0-1.56-.59-3-1.91-3s-1.91,1.41-1.91,3,.6,3,1.91,3S481.14,204.82,481.14,203.25Z"/><path class="cls-18" d="M489.66,206.46a2.69,2.69,0,0,1-2.24,1.37c-1.94,0-3.17-1.77-3.17-4.56s1.21-4.57,3.17-4.57a2.58,2.58,0,0,1,2.24,1.38V195.6h1.8v12h-1.8Zm0-5a2.05,2.05,0,0,0-1.7-1.19c-1.24,0-1.85,1.3-1.85,3s.61,3,1.85,3a2.05,2.05,0,0,0,1.7-1.19Z"/><path class="cls-18" d="M499.54,198.19l-1.84,1.93-1.17-1.22,3.26-3.3h1.73v12h-2Z"/><path class="cls-13" d="M434.34,208.44a1.37,1.37,0,0,0,.52.52l10.73,6.19h0a1.36,1.36,0,0,0,1.42,0L457.74,209a1.37,1.37,0,0,0,.52-.52,1.33,1.33,0,0,0,.19-.71V195.34h0a1.46,1.46,0,0,0-.19-.72,1.44,1.44,0,0,0-.52-.52L447,187.91h0a1.42,1.42,0,0,0-1.42,0h0l-10.73,6.19a1.44,1.44,0,0,0-.52.52,1.46,1.46,0,0,0-.19.72h0v12.39a1.33,1.33,0,0,0,.19.71"/><path class="cls-19" d="M446.3,200.71l-11.44-6.61h0l10.73-6.19a1.42,1.42,0,0,1,1.42,0l10.73,6.19Z"/><path class="cls-19" d="M445.59,201.94l-11.44-6.6h0v12.39a1.33,1.33,0,0,0,.19.71,1.37,1.37,0,0,0,.52.52l10.73,6.19Z"/><path class="cls-19" d="M447,201.94l11.44-6.6h0v12.39a1.33,1.33,0,0,1-.19.71,1.37,1.37,0,0,1-.52.52L447,215.15Z"/><rect class="cls-10" x="429.9" y="230.22" width="79.69" height="36.13" rx="2.5"/><rect class="cls-17" x="429.9" y="230.22" width="79.69" height="36.13" rx="2.5"/><path class="cls-18" d="M467.08,242.36h4.09a3.74,3.74,0,0,1,0,7.47h-2.09v4.54h-2Zm3.85,1.75h-1.85v4h1.85a2,2,0,0,0,0-4Z"/><path class="cls-18" d="M475.47,250c0-2.45,1.3-4.55,3.76-4.55S483,247.56,483,250s-1.3,4.57-3.77,4.57S475.47,252.46,475.47,250Zm5.67,0c0-1.57-.59-3-1.91-3s-1.91,1.4-1.91,3,.6,3,1.91,3S481.14,251.58,481.14,250Z"/><path class="cls-18" d="M489.65,253.22a2.65,2.65,0,0,1-2.23,1.36c-1.94,0-3.17-1.76-3.17-4.55s1.21-4.57,3.17-4.57a2.55,2.55,0,0,1,2.23,1.38v-4.48h1.8v12h-1.8Zm0-5A2,2,0,0,0,488,247c-1.24,0-1.85,1.3-1.85,3s.61,3,1.85,3a2,2,0,0,0,1.69-1.19Z"/><path class="cls-18" d="M497.19,252.75c4.2-4.38,5.3-5.55,5.3-7.08a1.66,1.66,0,0,0-1.73-1.73,3,3,0,0,0-2.56,1.43L497,244.12a4.47,4.47,0,0,1,3.8-1.94,3.45,3.45,0,0,1,3.74,3.47c0,1.91-1.35,3.57-4.41,6.95h4.47v1.77h-7.39Z"/><path class="cls-13" d="M434.34,255.2a1.44,1.44,0,0,0,.52.52l10.73,6.19h0a1.36,1.36,0,0,0,1.42,0l10.73-6.19a1.44,1.44,0,0,0,.52-.52,1.34,1.34,0,0,0,.19-.72V242.1h0a1.46,1.46,0,0,0-.19-.72,1.44,1.44,0,0,0-.52-.52L447,234.67h0a1.42,1.42,0,0,0-1.42,0h0l-10.73,6.19a1.44,1.44,0,0,0-.52.52,1.46,1.46,0,0,0-.19.72h0v12.38a1.34,1.34,0,0,0,.19.72"/><path class="cls-19" d="M446.3,247.47l-11.44-6.61h0l10.73-6.19a1.42,1.42,0,0,1,1.42,0l10.73,6.19Z"/><path class="cls-19" d="M445.59,248.7l-11.44-6.6h0v12.38a1.34,1.34,0,0,0,.19.72,1.44,1.44,0,0,0,.52.52l10.73,6.19Z"/><path class="cls-19" d="M447,248.7l11.44-6.6h0v12.38a1.34,1.34,0,0,1-.19.72,1.44,1.44,0,0,1-.52.52L447,261.91Z"/><rect class="cls-10" x="409.06" y="330.12" width="121.36" height="36.13" rx="2.5"/><rect class="cls-11" x="409.06" y="330.12" width="121.36" height="36.13" rx="2.5"/><path class="cls-18" d="M425,137.39h4c3.58,0,5.62,2.8,5.62,6.68s-2,6.66-5.62,6.66h-4Zm4,11.38c2.18,0,3.34-2,3.34-4.7s-1.12-4.74-3.34-4.74h-1.76v9.44Z"/><path class="cls-18" d="M440.09,140.83c2.62,0,4,2.22,4,5.14v.58H438c.08,1.58,1,2.78,2.52,2.78a3,3,0,0,0,2.18-1l1,1.2a4.42,4.42,0,0,1-3.34,1.48c-2.66,0-4.34-2.08-4.34-5.08C436,143.09,437.51,140.83,440.09,140.83Zm-2.14,4.3h4.22c0-1.2-.56-2.68-2.1-2.68S438,144,438,145.13Z"/><path class="cls-18" d="M445.81,154.41V141.07h2v1.28a2.91,2.91,0,0,1,2.48-1.52c2.18,0,3.52,1.94,3.52,5.06s-1.34,5.08-3.52,5.08a2.82,2.82,0,0,1-2.48-1.54v5Zm3.88-11.82a2.23,2.23,0,0,0-1.88,1.32v4a2.29,2.29,0,0,0,1.88,1.34c1.38,0,2.06-1.46,2.06-3.32S451.07,142.59,449.69,142.59Z"/><path class="cls-18" d="M455.57,137.39h2v13.34h-2Z"/><path class="cls-18" d="M459.35,145.89c0-2.72,1.44-5.06,4.18-5.06s4.18,2.34,4.18,5.06-1.44,5.08-4.18,5.08S459.35,148.61,459.35,145.89Zm6.3,0c0-1.74-.66-3.3-2.12-3.3s-2.12,1.56-2.12,3.3.66,3.32,2.12,3.32S465.65,147.63,465.65,145.89Z"/><path class="cls-18" d="M470.09,152.89a1,1,0,0,0,1.1-.8l.4-1.16-3.24-9.86h2.12l2.14,7.26,2.16-7.26h2.12l-3.82,11.48a2.65,2.65,0,0,1-2.84,2.1,4.69,4.69,0,0,1-1.08-.14l.3-1.76A1.48,1.48,0,0,0,470.09,152.89Z"/><path class="cls-18" d="M488.07,144c0-.9-.36-1.42-1.2-1.42a2.31,2.31,0,0,0-1.84,1.34v6.8h-2V144c0-.88-.36-1.42-1.2-1.42a2.34,2.34,0,0,0-1.84,1.34v6.8h-2v-9.66h2v1.3a3.35,3.35,0,0,1,2.68-1.54,2.09,2.09,0,0,1,2.26,1.7,3.37,3.37,0,0,1,2.78-1.7c1.46,0,2.36.78,2.36,2.54v7.36h-2Z"/><path class="cls-18" d="M496,140.83c2.62,0,4,2.22,4,5.14v.58h-6.14c.08,1.58,1,2.78,2.52,2.78a3,3,0,0,0,2.18-1l1,1.2a4.42,4.42,0,0,1-3.34,1.48c-2.66,0-4.34-2.08-4.34-5.08C491.85,143.09,493.41,140.83,496,140.83Zm-2.14,4.3h4.22c0-1.2-.56-2.68-2.1-2.68S493.91,144,493.85,145.13Z"/><path class="cls-18" d="M507.05,144.15c0-1.14-.52-1.56-1.38-1.56a2.39,2.39,0,0,0-2,1.34v6.8h-2v-9.66h2v1.3a3.55,3.55,0,0,1,2.8-1.54,2.3,2.3,0,0,1,2.54,2.62v7.28h-2Z"/><path class="cls-18" d="M511.67,148.57v-5.76h-1.26v-1.74h1.26v-2.64h2v2.64h1.6v1.74h-1.6v5.34c0,.66.22,1.06.74,1.06a1,1,0,0,0,.76-.32l.48,1.5a2.36,2.36,0,0,1-1.74.58C512.39,151,511.67,150.15,511.67,148.57Z"/><rect class="cls-8" x="589.87" y="144.06" width="110.24" height="127.04" rx="4.99"/><rect class="cls-9" x="589.87" y="144.06" width="110.24" height="127.04" rx="4.99"/><path class="cls-18" d="M624.89,245.45a4.26,4.26,0,0,0,3.18,1.44c1.38,0,2.08-.82,2.08-1.76,0-1.2-1.12-1.72-2.4-2.3-1.66-.72-3.58-1.54-3.58-4,0-2.08,1.62-3.72,4.14-3.72a5.46,5.46,0,0,1,3.85,1.44l-1.09,1.68a3.91,3.91,0,0,0-2.82-1.14,1.63,1.63,0,0,0-1.82,1.62c0,1,1.06,1.5,2.3,2.06,1.7.76,3.68,1.64,3.68,4.22,0,2.18-1.48,3.92-4.34,3.92a5.67,5.67,0,0,1-4.3-1.7Z"/><path class="cls-18" d="M637.79,238.73c2.62,0,4,2.22,4,5.14v.58h-6.15c.08,1.58,1,2.78,2.52,2.78a3,3,0,0,0,2.18-1l1,1.2a4.42,4.42,0,0,1-3.34,1.48c-2.66,0-4.34-2.08-4.34-5.08C633.65,241,635.21,238.73,637.79,238.73Zm-2.14,4.3h4.22c0-1.2-.56-2.68-2.1-2.68S635.71,241.87,635.65,243Z"/><path class="cls-18" d="M643.51,239h2v1.42a3.23,3.23,0,0,1,2.66-1.64v2a2.18,2.18,0,0,0-.52-.06,2.71,2.71,0,0,0-2.14,1.34v6.62h-2Z"/><path class="cls-18" d="M648.43,239h2.12l2.14,7.28,2.16-7.28H657l-3.21,9.66h-2.16Z"/><path class="cls-18" d="M657.59,243.79c0-2.72,1.44-5.06,4.18-5.06s4.18,2.34,4.18,5.06-1.44,5.08-4.18,5.08S657.59,246.51,657.59,243.79Zm6.3,0c0-1.74-.66-3.3-2.12-3.3s-2.12,1.56-2.12,3.3.66,3.32,2.12,3.32S663.89,245.53,663.89,243.79Z"/><path class="cls-18" d="M190.18,235.29h7.3v1.94H192.4v3.62h4.94v2H192.4v3.86h5.08v2h-7.3Z"/><path class="cls-18" d="M204.76,242.05c0-1.14-.52-1.56-1.38-1.56a2.39,2.39,0,0,0-2,1.34v6.8h-2V239h2v1.3a3.55,3.55,0,0,1,2.8-1.54,2.3,2.3,0,0,1,2.54,2.62v7.28h-2Z"/><path class="cls-18" d="M207.88,239H210l2.14,7.28L214.3,239h2.12l-3.2,9.66h-2.16Z"/><path class="cls-18" d="M217,243.79c0-2.72,1.44-5.06,4.18-5.06s4.18,2.34,4.18,5.06-1.44,5.08-4.18,5.08S217,246.51,217,243.79Zm6.3,0c0-1.74-.66-3.3-2.12-3.3s-2.12,1.56-2.12,3.3.66,3.32,2.12,3.32S223.34,245.53,223.34,243.79Z"/><path class="cls-18" d="M227.78,250.79a1,1,0,0,0,1.1-.8l.4-1.16L226,239h2.12l2.14,7.26,2.16-7.26h2.12l-3.82,11.48a2.65,2.65,0,0,1-2.84,2.1,4.69,4.69,0,0,1-1.08-.14l.3-1.76A1.48,1.48,0,0,0,227.78,250.79Z"/><rect class="cls-10" x="398.02" y="340.75" width="121.36" height="36.13" rx="2.49"/><rect class="cls-11" x="398.02" y="340.75" width="121.36" height="36.13" rx="2.49"/><path class="cls-18" d="M437.22,354.63h-2.76v-1.75H442v1.75H439.2v10.26h-2Z"/><path class="cls-18" d="M447.26,363.74a3.12,3.12,0,0,1-2.54,1.36,2,2,0,0,1-2.27-2.34v-6.57h1.8v5.94c0,1,.47,1.39,1.25,1.39a2.18,2.18,0,0,0,1.76-1.19v-6.14h1.8v8.7h-1.8Z"/><path class="cls-18" d="M456,359c0-1-.47-1.4-1.24-1.4a2.13,2.13,0,0,0-1.76,1.21v6.12h-1.81v-8.7H453v1.17a3.18,3.18,0,0,1,2.52-1.38,2.06,2.06,0,0,1,2.28,2.35v6.56H456Z"/><path class="cls-18" d="M459.68,353.64a1.14,1.14,0,0,1,1.13-1.14,1.13,1.13,0,1,1-1.13,1.14Zm.23,2.55h1.8v8.7h-1.8Z"/><path class="cls-18" d="M468.65,359c0-1-.47-1.4-1.25-1.4a2.13,2.13,0,0,0-1.76,1.21v6.12h-1.8v-8.7h1.8v1.17a3.2,3.2,0,0,1,2.52-1.38,2.06,2.06,0,0,1,2.29,2.35v6.56h-1.8Z"/><path class="cls-18" d="M473.23,365.93a2.94,2.94,0,0,0,2.26,1,1.93,1.93,0,0,0,2.05-2.17v-1.25a2.68,2.68,0,0,1-2.23,1.43c-1.95,0-3.17-1.68-3.17-4.47s1.2-4.46,3.17-4.46a2.58,2.58,0,0,1,2.23,1.38v-1.17h1.78v8.39c0,3-1.87,3.84-3.74,3.84a4.15,4.15,0,0,1-3.08-1.1Zm4.31-7.18a2.05,2.05,0,0,0-1.69-1.19c-1.25,0-1.86,1.21-1.86,2.88s.61,2.86,1.86,2.86a2.06,2.06,0,0,0,1.69-1.18Z"/><path class="cls-18" d="M485.35,352.88h4.09a3.74,3.74,0,0,1,0,7.47h-2.09v4.54h-2Zm3.85,1.75h-1.85v4h1.85a2,2,0,0,0,0-4Z"/><path class="cls-18" d="M493.74,360.53c0-2.45,1.29-4.55,3.76-4.55s3.76,2.1,3.76,4.55-1.29,4.57-3.76,4.57S493.74,363,493.74,360.53Zm5.67,0c0-1.57-.6-3-1.91-3s-1.91,1.4-1.91,3,.6,3,1.91,3S499.41,362.1,499.41,360.53Z"/><path class="cls-18" d="M507.92,363.74a2.66,2.66,0,0,1-2.23,1.36c-1.94,0-3.17-1.76-3.17-4.55s1.21-4.57,3.17-4.57a2.55,2.55,0,0,1,2.23,1.38v-4.48h1.8v12h-1.8Zm0-5a2,2,0,0,0-1.69-1.19c-1.24,0-1.86,1.3-1.86,3s.62,3,1.86,3a2,2,0,0,0,1.69-1.19Z"/><path class="cls-13" d="M402.45,365.72a1.47,1.47,0,0,0,.53.52l10.73,6.19h0a1.36,1.36,0,0,0,1.42,0l10.73-6.19a1.42,1.42,0,0,0,.71-1.24V352.62h0a1.46,1.46,0,0,0-.19-.72,1.44,1.44,0,0,0-.52-.52l-10.73-6.19h0a1.42,1.42,0,0,0-1.42,0h0L403,351.38a1.44,1.44,0,0,0-.52.52,1.37,1.37,0,0,0-.19.72h0V365a1.33,1.33,0,0,0,.18.72"/><path class="cls-19" d="M414.42,358,403,351.38h0l10.73-6.19a1.42,1.42,0,0,1,1.42,0l10.73,6.19Z"/><path class="cls-19" d="M413.71,359.22l-11.44-6.6h0V365a1.33,1.33,0,0,0,.18.72,1.55,1.55,0,0,0,.53.52l10.73,6.19Z"/><path class="cls-19" d="M415.13,359.22l11.44-6.6h0V365a1.42,1.42,0,0,1-.71,1.24l-10.73,6.19Z"/><line class="cls-12" x1="277.93" y1="208.6" x2="329.08" y2="208.6"/><path class="cls-20" d="M329.08,208.6A15.94,15.94,0,0,1,345,224.54"/><path class="cls-20" d="M361,358.81A15.94,15.94,0,0,1,345,342.87"/><line class="cls-12" x1="345.02" y1="224.54" x2="345.02" y2="343.28"/><path class="cls-21" d="M670.64,185.41c-.19-.68-.4-1.34-.64-2h0a14.66,14.66,0,0,0-1.49-3.44h0a33,33,0,0,0-2.17-3.47,26.73,26.73,0,0,0-3.91-4.25,27.63,27.63,0,0,0-5.39-3.62,5.69,5.69,0,0,0-3.09-.91,4.65,4.65,0,0,0-4.28,3.9,3.84,3.84,0,0,0,.06,1.72,5.24,5.24,0,0,0,1,1.67h0l.52.46h0l.1.09.6.37s8,4.22,10.18,11.12a13.62,13.62,0,0,1,.38,1.68v.14h0a18.12,18.12,0,0,1,.3,4.7,6,6,0,0,1-.13,1.2V195a16.6,16.6,0,0,1-.42,2.1,17.79,17.79,0,0,1-14.94,13.19,17,17,0,0,1-13-3.6,19.25,19.25,0,0,1-3.48-3.62,24.84,24.84,0,0,1-1.53-2.39,1.2,1.2,0,0,0-1.6-.47,1.23,1.23,0,0,0-.61,1.55,4.73,4.73,0,0,0,.31.64,27.07,27.07,0,0,0,3.06,4.11,1,1,0,0,1,0,1.51,1.07,1.07,0,0,1-1.52-.12c-.32-.33-.62-.68-.91-1a28.65,28.65,0,0,1-4-6.81,15.73,15.73,0,0,1-1.09-4.17,19.28,19.28,0,0,1-.31-4.42c.05-.59,0-.89.09-1.37l0-.17a1,1,0,0,1,0-.17c0-.15,0-.3,0-.45a31.29,31.29,0,0,1,1.09-4.69,2,2,0,0,0-1.31-2.57,2.07,2.07,0,0,0-2.61,1.2,17.7,17.7,0,0,0-.93,2.92,24.3,24.3,0,0,0-.62,4.33,26.76,26.76,0,0,0,1.06,9.5,30.69,30.69,0,0,0,2.83,6.36c.45.63.86,1.27,1.33,1.88a28.56,28.56,0,0,0,5.89,5.78,24.47,24.47,0,0,0,4.95,2.76,26.61,26.61,0,0,0,26.23-3.07,29.41,29.41,0,0,0,4.77-4.49l.19-.24a.32.32,0,0,1,.16-.2.36.36,0,0,1,.18-.22.73.73,0,0,1,.23-.32l.13-.17.37-.52a.32.32,0,0,1,.15-.21l.22-.33.15-.23.19-.31a.47.47,0,0,1,.18-.28c.26-.47.55-.93.79-1.42a27.14,27.14,0,0,0,2.81-8.73A26.62,26.62,0,0,0,670.64,185.41Z"/><polygon class="cls-21" points="665.9 208.81 665.89 208.81 665.89 208.82 665.9 208.81"/><path class="cls-21" d="M631.22,177.39h0a9.4,9.4,0,0,0-1.64,1.72h0c-.08.11-.17.21-.26.32a20.08,20.08,0,0,0-4.08,16.34,1.53,1.53,0,0,0,2.09,1.13,1.62,1.62,0,0,0,.92-2,12.5,12.5,0,0,1-.16-1.73,17.35,17.35,0,0,1,.31-3.86c.24-1,.47-2.07.8-3.09a15.63,15.63,0,0,1,1.59-3.23,16.41,16.41,0,0,1,2.92-3.56l1.83-1.52a19.45,19.45,0,0,1,7.23-3.16,4.84,4.84,0,0,0,1.29-.46,1.27,1.27,0,0,0,.4-1.85,1.76,1.76,0,0,0-1.82-.64,22.94,22.94,0,0,0-6.74,2.28A20.64,20.64,0,0,0,631.22,177.39Z"/><path class="cls-21" d="M624.21,180.62a2.13,2.13,0,0,0,2.31-.89,19.16,19.16,0,0,1,2-2.67,22.33,22.33,0,0,1,3.17-3.13,2.1,2.1,0,0,0,.72-2.25,1.91,1.91,0,0,0-3-1,16.93,16.93,0,0,0-4.22,3.74c-.78.94-1.48,1.94-2.2,2.93a2.49,2.49,0,0,0-.34,1.49A2.16,2.16,0,0,0,624.21,180.62Z"/><path class="cls-21" d="M633.49,184a3.26,3.26,0,0,0-.43.83,1,1,0,0,0,.67,1.26,1.13,1.13,0,0,0,1.47-.56,12.89,12.89,0,0,1,3.14-3.32,1.16,1.16,0,0,0,.3-1.75l-.09-.08a1.34,1.34,0,0,0-.89-.26h0a1,1,0,0,0-.28.1h0a3.92,3.92,0,0,0-1,.65A16,16,0,0,0,633.49,184Z"/><path class="cls-21" d="M636.09,171.4a2.09,2.09,0,1,0-2.1-2.09A2.06,2.06,0,0,0,636.09,171.4Z"/><path class="cls-21" d="M631.12,188.69a1.05,1.05,0,0,0-.06.24h0v0q-.09.41-.15.81a12.34,12.34,0,0,0-.23,2.51,17.31,17.31,0,0,0,1.26,6.27,15.41,15.41,0,0,0,2,3.45,14.31,14.31,0,0,0,2.2,2.27,15.39,15.39,0,0,0,4.33,2.64,1.1,1.1,0,0,0,.87.06,1.08,1.08,0,0,0,.75-1,1.07,1.07,0,0,0-.69-1.09,13.47,13.47,0,0,1-2.09-1.11,14.33,14.33,0,0,1-4.69-5.18,12.66,12.66,0,0,1-1.5-7.63c.06-.66.27-1.29.29-1.94a1,1,0,0,0-.83-1.1A1.15,1.15,0,0,0,631.12,188.69Z"/><path class="cls-21" d="M643.57,206.42a1.14,1.14,0,1,0,1.13-1.09A1.14,1.14,0,0,0,643.57,206.42Z"/><line class="cls-12" x1="712.37" y1="194.58" x2="756.62" y2="194.58"/><line class="cls-12" x1="777.88" y1="139.51" x2="821.22" y2="139.51"/><line class="cls-12" x1="821.22" y1="139.51" x2="815.29" y2="145.44"/><line class="cls-12" x1="821.22" y1="139.51" x2="815.29" y2="133.58"/><path class="cls-20" d="M777.88,139.51a10.63,10.63,0,0,0-10.63,10.63"/><path class="cls-20" d="M756.62,194.58A10.63,10.63,0,0,0,767.25,184"/><line class="cls-20" x1="767.25" y1="150.14" x2="767.25" y2="183.95"/><line class="cls-12" x1="549.03" y1="358.81" x2="617.49" y2="358.81"/><path class="cls-20" d="M633.43,342.87a15.94,15.94,0,0,1-15.94,15.94"/><rect class="cls-22" x="834.39" y="94.26" width="165.39" height="90.68" rx="5"/><rect class="cls-23" x="834.39" y="94.26" width="165.39" height="90.68" rx="5"/><path class="cls-24" d="M860.8,104.67l-3.47-15.08a2.68,2.68,0,0,0-1.44-1.81l-14.06-6.69a2.66,2.66,0,0,0-1.14-.25,3.27,3.27,0,0,0-1.16.22l-14.06,6.72A2.63,2.63,0,0,0,824,89.59l-3.48,15.08a2.82,2.82,0,0,0,.53,2.28L830.8,119a2.65,2.65,0,0,0,2.09,1h15.58a2.63,2.63,0,0,0,2.08-1L860.28,107A2.61,2.61,0,0,0,860.8,104.67Z"/><path class="cls-13" d="M854.78,103.47h0s-.06,0-.06,0l-.16,0a3.58,3.58,0,0,0-.53-.06,1.47,1.47,0,0,1-.28,0h0a8.51,8.51,0,0,1-1.5-.25.55.55,0,0,1-.3-.31s0,0,0-.06h0l-.36-.11a10.78,10.78,0,0,0-.2-3.91,11.31,11.31,0,0,0-1.55-3.64l.28-.25v-.06a.56.56,0,0,1,.14-.41,7.94,7.94,0,0,1,1.25-.87h0l.25-.13.47-.28.14-.11s.05,0,.05-.06h0a.94.94,0,0,0,.2-1.25.8.8,0,0,0-.64-.3,1,1,0,0,0-.61.22h0l-.06,0c-.05,0-.08.09-.14.11a4.26,4.26,0,0,0-.36.39,1.17,1.17,0,0,1-.19.2h0a7.52,7.52,0,0,1-1.11,1,.52.52,0,0,1-.25.08.32.32,0,0,1-.17,0h-.06l-.33.23a12.56,12.56,0,0,0-1.14-1.06,11.1,11.1,0,0,0-5.8-2.31l0-.36-.06,0a.64.64,0,0,1-.22-.36,10.07,10.07,0,0,1,.08-1.5v0a.94.94,0,0,1,.06-.28c0-.17,0-.33.08-.53v-.25h0a.89.89,0,0,0-.86-.91.92.92,0,0,0-.61.27.87.87,0,0,0-.25.64h0v.23a1.72,1.72,0,0,0,.08.52c0,.09,0,.17.06.28v0a7.2,7.2,0,0,1,.08,1.5.6.6,0,0,1-.22.36l-.06.06h0l0,.36a12.92,12.92,0,0,0-1.5.22,10.65,10.65,0,0,0-5.5,3.11l-.28-.19h-.06l-.16,0a.39.39,0,0,1-.25-.08,6.91,6.91,0,0,1-1.12-1h0a1.13,1.13,0,0,0-.19-.19,4.26,4.26,0,0,0-.36-.39l-.14-.11s-.06,0-.06-.06h0a.93.93,0,0,0-.61-.22.78.78,0,0,0-.64.31.94.94,0,0,0,.2,1.25h0s0,0,0,0,.09.09.14.11a3,3,0,0,0,.48.28,2.18,2.18,0,0,1,.25.14h0a9.28,9.28,0,0,1,1.25.86.54.54,0,0,1,.13.42v0h0l.28.25a1.42,1.42,0,0,0-.14.23,10.8,10.8,0,0,0-1.55,7.33l-.36.11s0,0,0,.06a.64.64,0,0,1-.31.3,6.49,6.49,0,0,1-1.5.25h0a.86.86,0,0,0-.28,0,3.44,3.44,0,0,0-.53.06l-.17,0a.1.1,0,0,0-.08,0h0a.9.9,0,0,0-.72,1,.85.85,0,0,0,.89.64.56.56,0,0,0,.22,0h0s0,0,0,0,.12,0,.17,0a2.47,2.47,0,0,0,.5-.19l.25-.11h0a6.86,6.86,0,0,1,1.44-.42h.06a.63.63,0,0,1,.36.14s0,0,.06,0h0l.38-.06a11.07,11.07,0,0,0,3.64,5.23,11.91,11.91,0,0,0,1.2.8l-.17.36s0,0,0,.06a.57.57,0,0,1,.06.44,7.65,7.65,0,0,1-.73,1.31v0c-.05.08-.11.13-.16.22s-.2.28-.31.44a.87.87,0,0,0-.08.14.1.1,0,0,1,0,.06h0a.87.87,0,0,0,.36,1.19.67.67,0,0,0,.33.08,1,1,0,0,0,.84-.52h0a.1.1,0,0,1,0-.06.47.47,0,0,1,.08-.14c.08-.19.11-.33.17-.5l.08-.25h0a6.46,6.46,0,0,1,.58-1.39.79.79,0,0,1,.36-.25.07.07,0,0,0,.06,0h0l.19-.37a10.74,10.74,0,0,0,3.89.73,10.33,10.33,0,0,0,2.42-.28,11.38,11.38,0,0,0,1.44-.42l.17.31s0,0,.06,0a.49.49,0,0,1,.36.25,9.1,9.1,0,0,1,.58,1.38v0l.08.25a4.2,4.2,0,0,0,.17.5c0,.06.06.09.08.14a.1.1,0,0,0,0,.06h0a.94.94,0,0,0,.83.52.68.68,0,0,0,.34-.08.82.82,0,0,0,.41-.5,1,1,0,0,0,0-.69h0s0,0,0-.06a.87.87,0,0,0-.08-.14,3.47,3.47,0,0,0-.31-.44c-.05-.09-.11-.14-.16-.22v0a6,6,0,0,1-.73-1.31.79.79,0,0,1,0-.44s0,0,0-.06h0l-.14-.33a10.82,10.82,0,0,0,3.67-3.58,10.49,10.49,0,0,0,1.16-2.5l.34,0s0,0,.05,0a.78.78,0,0,1,.36-.14H852a7.32,7.32,0,0,1,1.44.42h0l.25.11a2.75,2.75,0,0,0,.5.2l.17,0a.09.09,0,0,1,.08,0h0a.56.56,0,0,0,.22,0,.93.93,0,0,0,.89-.64,1.07,1.07,0,0,0-.8-.92Zm-12.86-1.36-1.23.59-1.22-.59-.3-1.3.83-1.06h1.36l.83,1.06-.27,1.3Zm7.25-2.89a9,9,0,0,1,.19,2.81l-4.25-1.22a.76.76,0,0,1-.53-.89.79.79,0,0,1,.17-.31l3.36-3a9.06,9.06,0,0,1,1.06,2.63Zm-2.39-4.3-3.64,2.58a.73.73,0,0,1-1-.16A.55.55,0,0,1,842,97l-.25-4.53a8.48,8.48,0,0,1,5,2.42Zm-8.06-2.28.89-.17-.25,4.45a.76.76,0,0,1-.75.72.7.7,0,0,1-.33-.08l-3.7-2.64a8.48,8.48,0,0,1,4.14-2.28Zm-5.47,4,3.3,2.94a.74.74,0,0,1,.09,1,.6.6,0,0,1-.34.22L832,102a8.89,8.89,0,0,1,1.25-5.44Zm-.75,7.52,4.42-.75a.75.75,0,0,1,.77.59.81.81,0,0,1,0,.44h0l-1.7,4.08a8.71,8.71,0,0,1-3.47-4.36Zm10.14,5.53a9,9,0,0,1-1.95.22,9.32,9.32,0,0,1-2.8-.44l2.19-4a.74.74,0,0,1,.89-.2,1.24,1.24,0,0,1,.33.31h0l2.14,3.86c-.25.08-.52.14-.8.22Zm5.41-3.86a8.76,8.76,0,0,1-2.66,2.69l-1.75-4.19a.73.73,0,0,1,.39-.86.83.83,0,0,1,.39-.08l4.44.75a5.49,5.49,0,0,1-.81,1.69Z"/><path class="cls-18" d="M896.57,248.52c3.38,0,5.34,3,5.34,6.9s-2,6.9-5.34,6.9-5.34-3-5.34-6.9S893.19,248.52,896.57,248.52Zm0,2c-2,0-3.08,2.14-3.08,4.94s1.08,4.92,3.08,4.92,3.08-2.16,3.08-4.92S898.55,250.48,896.57,250.48Z"/><path class="cls-18" d="M903.77,265.76V252.42h2v1.28a2.91,2.91,0,0,1,2.48-1.52c2.18,0,3.52,1.94,3.52,5.06s-1.34,5.08-3.52,5.08a2.82,2.82,0,0,1-2.48-1.54v5Zm3.88-11.82a2.23,2.23,0,0,0-1.88,1.32v4a2.29,2.29,0,0,0,1.88,1.34c1.38,0,2.06-1.46,2.06-3.32S909,253.94,907.65,253.94Z"/><path class="cls-18" d="M913.67,259.54a3.75,3.75,0,0,0,2.6,1.2c1,0,1.6-.46,1.6-1.2s-.84-1.16-1.82-1.52c-1.36-.48-3-1.06-3-3.08,0-1.5,1.2-2.76,3.32-2.76a4.47,4.47,0,0,1,3.18,1.24l-.84,1.36a3,3,0,0,0-2.3-1c-.9,0-1.48.44-1.48,1.06s.8,1.06,1.76,1.4c1.38.5,3,1.1,3,3.22,0,1.66-1.34,2.88-3.46,2.88a4.73,4.73,0,0,1-3.54-1.38Z"/><path class="cls-18" d="M926.45,261.1a3.13,3.13,0,0,1-2.54,1.22,3,3,0,0,1-3-3.22,2.89,2.89,0,0,1,3-3.14,3.11,3.11,0,0,1,2.54,1.16v-1.4a1.7,1.7,0,0,0-1.88-1.84,3.26,3.26,0,0,0-2.4,1.1l-.78-1.4a5,5,0,0,1,3.54-1.4c2,0,3.5.94,3.5,3.3v6.6h-2Zm0-2.68a2.11,2.11,0,0,0-1.82-1.08,1.8,1.8,0,0,0,0,3.6,2.13,2.13,0,0,0,1.82-1.06Z"/><path class="cls-18" d="M936,255.5c0-1.14-.52-1.56-1.38-1.56a2.39,2.39,0,0,0-2,1.34v6.8h-2v-9.66h2v1.3a3.55,3.55,0,0,1,2.8-1.54A2.3,2.3,0,0,1,938,254.8v7.28h-2Z"/><path class="cls-18" d="M940,249.58a1.27,1.27,0,0,1,1.26-1.26,1.25,1.25,0,0,1,0,2.5A1.26,1.26,0,0,1,940,249.58Zm.26,2.84h2v9.66h-2Z"/><path class="cls-18" d="M869.84,278.9a4.26,4.26,0,0,0,3.18,1.44c1.38,0,2.08-.82,2.08-1.76,0-1.2-1.12-1.72-2.4-2.3-1.66-.72-3.58-1.54-3.58-4,0-2.08,1.62-3.72,4.14-3.72A5.42,5.42,0,0,1,877.1,270L876,271.64a3.91,3.91,0,0,0-2.82-1.14,1.63,1.63,0,0,0-1.82,1.62c0,1,1.06,1.5,2.3,2.06,1.7.76,3.68,1.64,3.68,4.22,0,2.18-1.48,3.92-4.34,3.92a5.67,5.67,0,0,1-4.3-1.7Z"/><path class="cls-18" d="M884.08,281.1a3.13,3.13,0,0,1-2.54,1.22,3,3,0,0,1-3-3.22,2.89,2.89,0,0,1,3-3.14,3.11,3.11,0,0,1,2.54,1.16v-1.4a1.7,1.7,0,0,0-1.88-1.84,3.26,3.26,0,0,0-2.4,1.1l-.78-1.4a5,5,0,0,1,3.54-1.4c2,0,3.5.94,3.5,3.3v6.6h-2Zm0-2.68a2.11,2.11,0,0,0-1.82-1.08,1.8,1.8,0,0,0,0,3.6,2.13,2.13,0,0,0,1.82-1.06Z"/><path class="cls-18" d="M893.32,281.1a3.13,3.13,0,0,1-2.54,1.22,3,3,0,0,1-3-3.22,2.89,2.89,0,0,1,3-3.14,3.11,3.11,0,0,1,2.54,1.16v-1.4a1.7,1.7,0,0,0-1.88-1.84A3.26,3.26,0,0,0,889,275l-.78-1.4a5,5,0,0,1,3.54-1.4c2,0,3.5.94,3.5,3.3v6.6h-2Zm0-2.68a2.11,2.11,0,0,0-1.82-1.08,1.8,1.8,0,0,0,0,3.6,2.13,2.13,0,0,0,1.82-1.06Z"/><path class="cls-18" d="M897.94,278.9a4.26,4.26,0,0,0,3.18,1.44c1.38,0,2.08-.82,2.08-1.76,0-1.2-1.12-1.72-2.4-2.3-1.66-.72-3.58-1.54-3.58-4,0-2.08,1.62-3.72,4.14-3.72A5.42,5.42,0,0,1,905.2,270l-1.08,1.68a3.91,3.91,0,0,0-2.82-1.14,1.63,1.63,0,0,0-1.82,1.62c0,1,1.06,1.5,2.3,2.06,1.7.76,3.68,1.64,3.68,4.22,0,2.18-1.48,3.92-4.34,3.92a5.67,5.67,0,0,1-4.3-1.7Z"/><path class="cls-18" d="M911.7,278.9a4.26,4.26,0,0,0,3.18,1.44c1.38,0,2.08-.82,2.08-1.76,0-1.2-1.12-1.72-2.4-2.3-1.66-.72-3.58-1.54-3.58-4,0-2.08,1.62-3.72,4.14-3.72A5.42,5.42,0,0,1,919,270l-1.08,1.68a3.91,3.91,0,0,0-2.82-1.14,1.63,1.63,0,0,0-1.82,1.62c0,1,1.06,1.5,2.3,2.06,1.7.76,3.68,1.64,3.68,4.22,0,2.18-1.48,3.92-4.34,3.92a5.67,5.67,0,0,1-4.3-1.7Z"/><path class="cls-18" d="M924.6,272.18c2.62,0,4,2.22,4,5.14v.58h-6.14c.08,1.58,1,2.78,2.52,2.78a3,3,0,0,0,2.18-1l1,1.2a4.42,4.42,0,0,1-3.34,1.48c-2.66,0-4.34-2.08-4.34-5.08C920.46,274.44,922,272.18,924.6,272.18Zm-2.14,4.3h4.22c0-1.2-.56-2.68-2.1-2.68S922.52,275.32,922.46,276.48Z"/><path class="cls-18" d="M930.32,272.42h2v1.42A3.23,3.23,0,0,1,935,272.2v2a2.18,2.18,0,0,0-.52-.06,2.71,2.71,0,0,0-2.14,1.34v6.62h-2Z"/><path class="cls-18" d="M935.24,272.42h2.12l2.14,7.28,2.16-7.28h2.12l-3.2,9.66h-2.16Z"/><path class="cls-18" d="M944.62,269.58a1.27,1.27,0,0,1,1.26-1.26,1.25,1.25,0,0,1,0,2.5A1.26,1.26,0,0,1,944.62,269.58Zm.26,2.84h2v9.66h-2Z"/><path class="cls-18" d="M952.9,272.18a3.57,3.57,0,0,1,2.94,1.3l-1,1.36a2,2,0,0,0-1.72-.9c-1.52,0-2.38,1.46-2.38,3.3s.86,3.32,2.38,3.32a2.1,2.1,0,0,0,1.72-.9l1,1.36a3.57,3.57,0,0,1-2.94,1.3c-2.58,0-4.24-2.16-4.24-5.08S950.32,272.18,952.9,272.18Z"/><path class="cls-18" d="M961,272.18c2.62,0,4,2.22,4,5.14v.58h-6.14c.08,1.58,1,2.78,2.52,2.78a3,3,0,0,0,2.18-1l1,1.2a4.42,4.42,0,0,1-3.34,1.48c-2.66,0-4.34-2.08-4.34-5.08C956.86,274.44,958.42,272.18,961,272.18Zm-2.14,4.3h4.22c0-1.2-.56-2.68-2.1-2.68S958.92,275.32,958.86,276.48Z"/><path class="cls-18" d="M897.08,299.2a14.1,14.1,0,0,1,2.14-7.51l1.14.66a16.88,16.88,0,0,0,0,13.69l-1.14.68A14.09,14.09,0,0,1,897.08,299.2Z"/><path class="cls-18" d="M906.16,297.71c0-1-.46-1.3-1.2-1.3a2.09,2.09,0,0,0-1.66,1.14v5.78h-1.7V292h1.7v4.24a3,3,0,0,1,2.4-1.31c1.46,0,2.14.76,2.14,2.21v6.2h-1.68Z"/><path class="cls-18" d="M910.07,301.5v-4.9H909v-1.48h1.07v-2.24h1.7v2.24h1.35v1.48h-1.35v4.54c0,.56.18.9.62.9a.86.86,0,0,0,.65-.27l.41,1.27a2,2,0,0,1-1.48.5C910.68,303.54,910.07,302.84,910.07,301.5Z"/><path class="cls-18" d="M914.79,301.5v-4.9h-1.07v-1.48h1.07v-2.24h1.7v2.24h1.36v1.48h-1.36v4.54c0,.56.19.9.63.9a.87.87,0,0,0,.65-.27l.4,1.27a2,2,0,0,1-1.47.5C915.4,303.54,914.79,302.84,914.79,301.5Z"/><path class="cls-18" d="M919.21,306.46V295.12h1.7v1.09a2.47,2.47,0,0,1,2.11-1.29c1.85,0,3,1.65,3,4.3s-1.14,4.32-3,4.32a2.4,2.4,0,0,1-2.11-1.31v4.23Zm3.3-10a1.91,1.91,0,0,0-1.6,1.13v3.36a2,2,0,0,0,1.6,1.14c1.17,0,1.75-1.24,1.75-2.82S923.68,296.41,922.51,296.41Z"/><path class="cls-18" d="M927.63,301.17a3.16,3.16,0,0,0,2.21,1c.85,0,1.36-.39,1.36-1s-.72-1-1.55-1.29c-1.16-.41-2.52-.9-2.52-2.62,0-1.27,1-2.34,2.82-2.34a3.81,3.81,0,0,1,2.71,1.05l-.72,1.16a2.58,2.58,0,0,0-2-.87c-.77,0-1.26.38-1.26.9s.68.9,1.5,1.19c1.17.43,2.58.94,2.58,2.74,0,1.41-1.14,2.45-2.94,2.45a4,4,0,0,1-3-1.18Z"/><path class="cls-18" d="M933.56,292.35l1.12-.66a14.15,14.15,0,0,1,0,15l-1.12-.68a17,17,0,0,0,0-13.69Z"/><path class="cls-18" d="M863.16,124.8l-1,1.52v4h-2.22V117h2.22v6.42L866.3,117h2.6l-4.36,6.3,4.68,7H866.6Z"/><path class="cls-18" d="M875.42,129a3.49,3.49,0,0,1-2.82,1.52c-1.72,0-2.52-.92-2.52-2.6v-7.3h2v6.6c0,1.12.52,1.54,1.38,1.54a2.42,2.42,0,0,0,2-1.32v-6.82h2v9.66h-2Z"/><path class="cls-18" d="M879.68,117h2v5a2.82,2.82,0,0,1,2.48-1.54c2.16,0,3.52,2,3.52,5.08s-1.36,5.06-3.52,5.06a2.93,2.93,0,0,1-2.48-1.52v1.28h-2Zm3.88,11.82c1.38,0,2.06-1.44,2.06-3.3s-.68-3.32-2.06-3.32a2.29,2.29,0,0,0-1.88,1.34v4A2.27,2.27,0,0,0,883.56,128.78Z"/><path class="cls-18" d="M893.12,120.4c2.62,0,4,2.22,4,5.14v.58H891c.08,1.58,1,2.78,2.52,2.78a3,3,0,0,0,2.18-1l1,1.2a4.42,4.42,0,0,1-3.34,1.48c-2.66,0-4.34-2.08-4.34-5.08C889,122.66,890.54,120.4,893.12,120.4ZM891,124.7h4.22c0-1.2-.56-2.68-2.1-2.68S891,123.54,891,124.7Z"/><path class="cls-18" d="M898.84,120.64h2v1.42a3.23,3.23,0,0,1,2.66-1.64v2a2.18,2.18,0,0,0-.52-.06,2.71,2.71,0,0,0-2.14,1.34v6.62h-2Z"/><path class="cls-18" d="M910.24,123.72c0-1.14-.52-1.56-1.38-1.56a2.39,2.39,0,0,0-2,1.34v6.8h-2v-9.66h2v1.3a3.55,3.55,0,0,1,2.8-1.54,2.3,2.3,0,0,1,2.54,2.62v7.28h-2Z"/><path class="cls-18" d="M918.16,120.4c2.62,0,4,2.22,4,5.14v.58H916c.08,1.58,1,2.78,2.52,2.78a3,3,0,0,0,2.18-1l1,1.2a4.42,4.42,0,0,1-3.34,1.48c-2.66,0-4.34-2.08-4.34-5.08C914,122.66,915.58,120.4,918.16,120.4ZM916,124.7h4.22c0-1.2-.56-2.68-2.1-2.68S916.08,123.54,916,124.7Z"/><path class="cls-18" d="M924.24,128.14v-5.76H923v-1.74h1.26V118h2v2.64h1.6v1.74h-1.6v5.34c0,.66.22,1.06.74,1.06a1,1,0,0,0,.76-.32l.48,1.5a2.36,2.36,0,0,1-1.74.58C925,130.54,924.24,129.72,924.24,128.14Z"/><path class="cls-18" d="M933.1,120.4c2.62,0,4,2.22,4,5.14v.58H931c.08,1.58,1,2.78,2.52,2.78a3,3,0,0,0,2.18-1l1,1.2a4.42,4.42,0,0,1-3.34,1.48c-2.66,0-4.34-2.08-4.34-5.08C929,122.66,930.52,120.4,933.1,120.4ZM931,124.7h4.22c0-1.2-.56-2.68-2.1-2.68S931,123.54,931,124.7Z"/><path class="cls-18" d="M939,127.76a3.75,3.75,0,0,0,2.6,1.2c1,0,1.6-.46,1.6-1.2s-.84-1.16-1.82-1.52c-1.36-.48-3-1.06-3-3.08,0-1.5,1.2-2.76,3.32-2.76a4.47,4.47,0,0,1,3.18,1.24L944,123a3,3,0,0,0-2.3-1c-.9,0-1.48.44-1.48,1.06s.8,1.06,1.76,1.4c1.38.5,3,1.1,3,3.22,0,1.66-1.34,2.88-3.46,2.88a4.73,4.73,0,0,1-3.54-1.38Z"/><path class="cls-18" d="M957.34,127.66h-4.58L952,130.3h-2.3l4-13.34h2.66l4,13.34h-2.3Zm-4.12-2h3.68l-1.84-6.76Z"/><path class="cls-18" d="M961.6,117h4.54a3.82,3.82,0,0,1,3.94,4.14c0,2.24-1.32,4.16-3.94,4.16h-2.32v5H961.6Zm4.28,1.94h-2.06v4.4h2.06a2.22,2.22,0,0,0,0-4.4Z"/><path class="cls-18" d="M971.76,117H974V130.3h-2.22Z"/><path class="cls-18" d="M885.28,143.93a15,15,0,0,1,2.27-8l1.2.7a17.94,17.94,0,0,0,0,14.5l-1.2.72A14.92,14.92,0,0,1,885.28,143.93Z"/><path class="cls-18" d="M895.88,145.93h-4.12l-.65,2.37H889l3.58-12H895l3.58,12h-2.07Zm-3.71-1.77h3.32l-1.66-6.09Z"/><path class="cls-18" d="M904.56,147.15a2.67,2.67,0,0,1-2.23,1.37c-2,0-3.17-1.77-3.17-4.56s1.2-4.57,3.17-4.57a2.55,2.55,0,0,1,2.23,1.39v-4.49h1.8v12h-1.8Zm0-5a2.05,2.05,0,0,0-1.69-1.19c-1.25,0-1.86,1.3-1.86,3s.61,3,1.86,3a2.06,2.06,0,0,0,1.69-1.18Z"/><path class="cls-18" d="M912.89,147.42a2.8,2.8,0,0,1-2.28,1.1,2.68,2.68,0,0,1-2.67-2.9,2.61,2.61,0,0,1,2.67-2.83,2.76,2.76,0,0,1,2.28,1.05v-1.26a1.52,1.52,0,0,0-1.69-1.66,2.93,2.93,0,0,0-2.16,1l-.7-1.26a4.49,4.49,0,0,1,3.18-1.26c1.82,0,3.15.85,3.15,3v5.94h-1.78Zm0-2.41a1.91,1.91,0,0,0-1.64-1,1.63,1.63,0,0,0,0,3.25,1.91,1.91,0,0,0,1.64-1Z"/><path class="cls-18" d="M916.71,151.62v-12h1.8v1.15a2.6,2.6,0,0,1,2.23-1.37c2,0,3.17,1.75,3.17,4.55s-1.21,4.58-3.17,4.58a2.52,2.52,0,0,1-2.23-1.39v4.49ZM920.2,141a2,2,0,0,0-1.69,1.19v3.57a2,2,0,0,0,1.69,1.2c1.24,0,1.85-1.31,1.85-3S921.44,141,920.2,141Z"/><path class="cls-18" d="M925.81,146.36v-5.19h-1.13v-1.56h1.13v-2.38h1.8v2.38h1.44v1.56h-1.44V146c0,.59.2,1,.67,1a.88.88,0,0,0,.68-.28l.44,1.35a2.16,2.16,0,0,1-1.57.52C926.46,148.52,925.81,147.78,925.81,146.36Z"/><path class="cls-18" d="M930.26,137.05a1.14,1.14,0,0,1,1.13-1.14,1.13,1.13,0,1,1-1.13,1.14Zm.23,2.56h1.8v8.69h-1.8Z"/><path class="cls-18" d="M933.3,139.61h1.91l1.93,6.55,1.94-6.55H941l-2.88,8.69h-2Z"/><path class="cls-18" d="M945.27,139.39c2.36,0,3.62,2,3.62,4.63v.52h-5.52a2.31,2.31,0,0,0,2.26,2.5,2.7,2.7,0,0,0,2-.93l.86,1.08a4,4,0,0,1-3,1.33c-2.39,0-3.9-1.87-3.9-4.58C941.55,141.42,943,139.39,945.27,139.39Zm-1.92,3.87h3.8c0-1.08-.51-2.41-1.9-2.41S943.4,142.22,943.35,143.26Z"/><path class="cls-18" d="M875.92,154.29h2v12h-2Z"/><path class="cls-18" d="M884.85,160.38c0-1-.47-1.41-1.24-1.41a2.16,2.16,0,0,0-1.77,1.21v6.12H880v-8.69h1.8v1.17a3.18,3.18,0,0,1,2.52-1.39,2.07,2.07,0,0,1,2.29,2.36v6.55h-1.8Z"/><path class="cls-18" d="M888.81,164a3.4,3.4,0,0,0,2.34,1.08c.9,0,1.44-.42,1.44-1.08s-.76-1.05-1.64-1.37c-1.22-.43-2.66-1-2.66-2.78,0-1.35,1.08-2.48,3-2.48a4,4,0,0,1,2.87,1.12l-.76,1.22a2.75,2.75,0,0,0-2.07-.92c-.81,0-1.33.4-1.33,1s.72.95,1.58,1.26c1.24.45,2.74,1,2.74,2.9,0,1.49-1.21,2.59-3.12,2.59a4.25,4.25,0,0,1-3.18-1.24Z"/><path class="cls-18" d="M896.13,164.36v-5.19H895v-1.56h1.13v-2.38h1.8v2.38h1.44v1.56h-1.44V164c0,.59.2,1,.67,1a.88.88,0,0,0,.68-.28l.44,1.35a2.16,2.16,0,0,1-1.57.52C896.78,166.52,896.13,165.78,896.13,164.36Z"/><path class="cls-18" d="M900.81,157.61h1.8v1.27a2.94,2.94,0,0,1,2.4-1.47v1.78a1.83,1.83,0,0,0-.47-.05,2.43,2.43,0,0,0-1.93,1.2v6h-1.8Z"/><path class="cls-18" d="M911.07,165.15a3.12,3.12,0,0,1-2.53,1.37,2,2,0,0,1-2.27-2.34v-6.57h1.8v5.94c0,1,.47,1.38,1.24,1.38a2.16,2.16,0,0,0,1.76-1.18v-6.14h1.8v8.69h-1.8Z"/><path class="cls-18" d="M918.29,157.39a3.21,3.21,0,0,1,2.65,1.17l-.92,1.22a1.86,1.86,0,0,0-1.55-.81c-1.37,0-2.14,1.32-2.14,3s.77,3,2.14,3a1.89,1.89,0,0,0,1.55-.81l.92,1.23a3.21,3.21,0,0,1-2.65,1.17c-2.32,0-3.82-2-3.82-4.58S916,157.39,918.29,157.39Z"/><path class="cls-18" d="M922.61,164.36v-5.19h-1.13v-1.56h1.13v-2.38h1.8v2.38h1.44v1.56h-1.44V164c0,.59.2,1,.67,1a.9.9,0,0,0,.68-.28l.43,1.35a2.11,2.11,0,0,1-1.56.52C923.26,166.52,922.61,165.78,922.61,164.36Z"/><path class="cls-18" d="M927.06,155.05a1.13,1.13,0,1,1,2.25,0,1.13,1.13,0,0,1-2.25,0Zm.23,2.56h1.8v8.69h-1.8Z"/><path class="cls-18" d="M930.69,161.94c0-2.44,1.3-4.55,3.76-4.55s3.77,2.11,3.77,4.55-1.3,4.58-3.77,4.58S930.69,164.39,930.69,161.94Zm5.67,0c0-1.56-.59-3-1.91-3s-1.9,1.41-1.9,3,.59,3,1.9,3S936.36,163.51,936.36,161.94Z"/><path class="cls-18" d="M944.62,160.38c0-1-.46-1.41-1.24-1.41a2.15,2.15,0,0,0-1.76,1.21v6.12h-1.8v-8.69h1.8v1.17a3.18,3.18,0,0,1,2.52-1.39,2.06,2.06,0,0,1,2.28,2.36v6.55h-1.8Z"/><path class="cls-18" d="M948.58,164a3.42,3.42,0,0,0,2.34,1.08c.9,0,1.44-.42,1.44-1.08s-.75-1.05-1.63-1.37c-1.23-.43-2.67-1-2.67-2.78,0-1.35,1.08-2.48,3-2.48a4,4,0,0,1,2.86,1.12l-.75,1.22a2.76,2.76,0,0,0-2.07-.92c-.81,0-1.34.4-1.34,1s.72.95,1.59,1.26c1.24.45,2.73,1,2.73,2.9,0,1.49-1.2,2.59-3.11,2.59a4.28,4.28,0,0,1-3.19-1.24Z"/><path class="cls-18" d="M954.86,154.67l1.19-.7a15,15,0,0,1,0,15.92l-1.19-.72a17.94,17.94,0,0,0,0-14.5Z"/><line class="cls-12" x1="277.31" y1="190.64" x2="283.24" y2="196.57"/><line class="cls-12" x1="277.31" y1="190.64" x2="283.24" y2="184.71"/><line class="cls-12" x1="277.31" y1="208.6" x2="283.24" y2="214.54"/><line class="cls-12" x1="277.31" y1="208.6" x2="283.24" y2="202.67"/><line class="cls-12" x1="548.56" y1="358.81" x2="554.49" y2="364.74"/><line class="cls-12" x1="548.56" y1="358.81" x2="554.49" y2="352.88"/><line class="cls-12" x1="711.37" y1="194.52" x2="717.3" y2="200.45"/><line class="cls-12" x1="711.37" y1="194.52" x2="717.3" y2="188.59"/><rect class="cls-25" x="70.87" y="168.93" width="41.83" height="145.95"/><path class="cls-18" d="M49.23,258.71v9.22H47V254.59h2.24l4.82,8.88v-8.88h2.22v13.34H54.17Z"/><path class="cls-18" d="M63.69,254.37a4.57,4.57,0,0,1,4.24,2.84l-1.8.84a2.71,2.71,0,0,0-2.44-1.72c-1.9,0-3.18,1.9-3.18,4.94s1.28,4.94,3.18,4.94a3,3,0,0,0,2.22-1v-2.48h-2.8v-1.94H68v5.3a5.46,5.46,0,0,1-4.32,2.06c-3.28,0-5.44-2.8-5.44-6.92S60.41,254.37,63.69,254.37Z"/><path class="cls-18" d="M70.17,254.59h2.22v13.34H70.17Z"/><path class="cls-18" d="M77.07,258.71v9.22H74.85V254.59h2.24l4.82,8.88v-8.88h2.22v13.34H82Z"/><path class="cls-18" d="M90.65,262.85l-2.74,5.08H85.35l3.94-6.82-3.7-6.52h2.54l2.52,4.8,2.52-4.8h2.56l-3.7,6.5L96,267.93H93.41Z"/><path class="cls-18" d="M44.44,274.59h2.22v13.34H44.44Z"/><path class="cls-18" d="M54.36,281.35c0-1.14-.52-1.56-1.38-1.56a2.39,2.39,0,0,0-2,1.34v6.8H49v-9.66h2v1.3a3.55,3.55,0,0,1,2.8-1.54,2.3,2.3,0,0,1,2.54,2.62v7.28h-2Z"/><path class="cls-18" d="M59.36,289.09a3.26,3.26,0,0,0,2.5,1.08,2.15,2.15,0,0,0,2.28-2.42v-1.38A3,3,0,0,1,61.66,288c-2.16,0-3.52-1.86-3.52-5s1.34-5,3.52-5a2.86,2.86,0,0,1,2.48,1.54v-1.3h2v9.32c0,3.34-2.08,4.26-4.16,4.26a4.63,4.63,0,0,1-3.42-1.22Zm4.78-8a2.27,2.27,0,0,0-1.88-1.32c-1.38,0-2.06,1.34-2.06,3.2s.68,3.18,2.06,3.18a2.27,2.27,0,0,0,1.88-1.32Z"/><path class="cls-18" d="M68.38,278.27h2v1.42A3.23,3.23,0,0,1,73,278.05v2a2.18,2.18,0,0,0-.52-.06,2.71,2.71,0,0,0-2.14,1.34v6.62h-2Z"/><path class="cls-18" d="M78.1,278c2.62,0,4,2.22,4,5.14v.58H76c.08,1.58,1,2.78,2.52,2.78a3,3,0,0,0,2.18-1l1,1.2a4.42,4.42,0,0,1-3.34,1.48c-2.66,0-4.34-2.08-4.34-5.08C74,280.29,75.52,278,78.1,278ZM76,282.33h4.22c0-1.2-.56-2.68-2.1-2.68S76,281.17,76,282.33Z"/><path class="cls-18" d="M84,285.39a3.75,3.75,0,0,0,2.6,1.2c1,0,1.6-.46,1.6-1.2s-.84-1.16-1.82-1.52c-1.36-.48-3-1.06-3-3.08,0-1.5,1.2-2.76,3.32-2.76a4.47,4.47,0,0,1,3.18,1.24L89,280.63a3,3,0,0,0-2.3-1c-.9,0-1.48.44-1.48,1.06s.8,1.06,1.76,1.4c1.38.5,3,1.1,3,3.22,0,1.66-1.34,2.88-3.46,2.88a4.73,4.73,0,0,1-3.54-1.38Z"/><path class="cls-18" d="M91.88,285.39a3.75,3.75,0,0,0,2.6,1.2c1,0,1.6-.46,1.6-1.2s-.84-1.16-1.82-1.52c-1.36-.48-3-1.06-3-3.08,0-1.5,1.2-2.76,3.32-2.76a4.47,4.47,0,0,1,3.18,1.24L97,280.63a3,3,0,0,0-2.3-1c-.9,0-1.48.44-1.48,1.06s.8,1.06,1.76,1.4c1.38.5,3,1.1,3,3.22,0,1.66-1.34,2.88-3.46,2.88A4.73,4.73,0,0,1,91,286.79Z"/><path class="cls-18" d="M33.93,301.27c0-4,2.1-6.9,5.38-6.9a4.53,4.53,0,0,1,4.28,2.94l-1.84.82a2.65,2.65,0,0,0-2.44-1.8c-1.9,0-3.12,2.08-3.12,4.94s1.22,4.92,3.12,4.92a2.66,2.66,0,0,0,2.46-2l1.84.82a4.53,4.53,0,0,1-4.3,3.12C36,308.17,33.93,305.27,33.93,301.27Z"/><path class="cls-18" d="M44.69,303.09c0-2.72,1.44-5.06,4.18-5.06s4.18,2.34,4.18,5.06-1.44,5.08-4.18,5.08S44.69,305.81,44.69,303.09Zm6.3,0c0-1.74-.66-3.3-2.12-3.3s-2.12,1.56-2.12,3.3.66,3.32,2.12,3.32S51,304.83,51,303.09Z"/><path class="cls-18" d="M60.17,301.35c0-1.14-.52-1.56-1.38-1.56a2.39,2.39,0,0,0-2,1.34v6.8h-2v-9.66h2v1.3a3.55,3.55,0,0,1,2.8-1.54,2.3,2.3,0,0,1,2.54,2.62v7.28h-2Z"/><path class="cls-18" d="M64.79,305.77V300H63.53v-1.74h1.26v-2.64h2v2.64h1.6V300h-1.6v5.34c0,.66.22,1.06.74,1.06a1,1,0,0,0,.76-.32l.48,1.5a2.36,2.36,0,0,1-1.74.58C65.51,308.17,64.79,307.35,64.79,305.77Z"/><path class="cls-18" d="M70,298.27h2v1.42a3.23,3.23,0,0,1,2.66-1.64v2a2.18,2.18,0,0,0-.52-.06A2.71,2.71,0,0,0,72,301.31v6.62H70Z"/><path class="cls-18" d="M75.57,303.09c0-2.72,1.44-5.06,4.18-5.06s4.18,2.34,4.18,5.06-1.44,5.08-4.18,5.08S75.57,305.81,75.57,303.09Zm6.3,0c0-1.74-.66-3.3-2.12-3.3s-2.12,1.56-2.12,3.3.66,3.32,2.12,3.32S81.87,304.83,81.87,303.09Z"/><path class="cls-18" d="M85.71,294.59h2v13.34h-2Z"/><path class="cls-18" d="M90,294.59h2v13.34H90Z"/><path class="cls-18" d="M97.89,298c2.62,0,4,2.22,4,5.14v.58H95.77c.08,1.58,1,2.78,2.52,2.78a3,3,0,0,0,2.18-1l1,1.2a4.42,4.42,0,0,1-3.34,1.48c-2.66,0-4.34-2.08-4.34-5.08C93.75,300.29,95.31,298,97.89,298Zm-2.14,4.3H100c0-1.2-.56-2.68-2.1-2.68S95.81,301.17,95.75,302.33Z"/><path class="cls-18" d="M103.61,298.27h2v1.42a3.23,3.23,0,0,1,2.66-1.64v2a2.18,2.18,0,0,0-.52-.06,2.71,2.71,0,0,0-2.14,1.34v6.62h-2Z"/><path class="cls-26" d="M99.74,238.65h.47v-1.06h.38a1,1,0,0,1,.52.09.64.64,0,0,1,.25.61v.33s0,0,0,0h.44v0s0-.07,0-.14a1.48,1.48,0,0,1,0-.2v-.2a.74.74,0,0,0-.15-.42.65.65,0,0,0-.47-.26,1.26,1.26,0,0,0,.39-.13.59.59,0,0,0,.27-.53.66.66,0,0,0-.42-.68,1.89,1.89,0,0,0-.73-.1h-.94Zm1.35-1.45a1.3,1.3,0,0,1-.46.06h-.42v-1h.41a1.32,1.32,0,0,1,.57.1.42.42,0,0,1,.17.4.42.42,0,0,1-.27.42m1.37-1.62a2.4,2.4,0,0,0-1.74-.71,2.44,2.44,0,1,0,1.74.71m-.24.25a2,2,0,0,1,.61,1.49,2.07,2.07,0,0,1-.61,1.5,2.11,2.11,0,0,1-3,0,2.07,2.07,0,0,1-.61-1.5,2,2,0,0,1,.61-1.49,2.09,2.09,0,0,1,3,0"/><path class="cls-27" d="M38.29,227a3.71,3.71,0,0,0,1.41,1.4L68.58,245h0a3.74,3.74,0,0,0,3.84,0l28.88-16.67a3.71,3.71,0,0,0,1.41-1.4,3.64,3.64,0,0,0,.51-1.92V191.69h0a3.75,3.75,0,0,0-.51-1.93,3.86,3.86,0,0,0-1.41-1.4L72.42,171.69h0a3.8,3.8,0,0,0-3.84,0h0L39.7,188.36a3.94,3.94,0,0,0-1.41,1.4,3.85,3.85,0,0,0-.51,1.93h0V225a3.84,3.84,0,0,0,.51,1.92"/><rect class="cls-28" x="50.43" y="195.76" width="25.38" height="25.38"/><rect class="cls-29" x="83.25" y="192.82" width="7.33" height="7.33"/><rect class="cls-29" x="83.25" y="204.7" width="7.33" height="7.33"/><rect class="cls-29" x="83.25" y="216.57" width="7.33" height="7.33"/><line class="cls-29" x1="76.38" y1="208.45" x2="82.82" y2="208.45"/><line class="cls-29" x1="76.04" y1="211.48" x2="83.35" y2="217.06"/><line class="cls-29" x1="76.04" y1="205.42" x2="83.35" y2="199.85"/><path class="cls-3" d="M129.78,180.35l16.5,14.23a2.66,2.66,0,0,0,3.76-3.76l-16.5-14.23a2.66,2.66,0,0,0-3.76,3.76Z"/><circle class="cls-2" cx="840.23" cy="238.08" r="18.02"/><path class="cls-21" d="M860.06,232.24c-.14-.51-.3-1-.48-1.51h0a11.24,11.24,0,0,0-1.13-2.62h0a24.75,24.75,0,0,0-1.66-2.63,20.3,20.3,0,0,0-3-3.24,21.38,21.38,0,0,0-4.09-2.75,4.3,4.3,0,0,0-2.35-.69,3.55,3.55,0,0,0-3.25,3,2.86,2.86,0,0,0,0,1.3,4.06,4.06,0,0,0,.75,1.27h0l.4.35h0l.08.07.45.28s6.1,3.21,7.74,8.46a10.64,10.64,0,0,1,.29,1.27v.11h0a13.79,13.79,0,0,1,.23,3.57,4.7,4.7,0,0,1-.1.91v.2a14.57,14.57,0,0,1-.31,1.6,13.52,13.52,0,0,1-11.36,10,12.86,12.86,0,0,1-9.89-2.74,14.27,14.27,0,0,1-2.64-2.74,19.4,19.4,0,0,1-1.17-1.82.91.91,0,0,0-1.21-.36.93.93,0,0,0-.46,1.18,2.65,2.65,0,0,0,.23.48,20.35,20.35,0,0,0,2.33,3.13.78.78,0,0,1,0,1.15.8.8,0,0,1-1.15-.09c-.24-.25-.47-.52-.69-.79a21.77,21.77,0,0,1-3-5.17,12,12,0,0,1-.83-3.18,14.55,14.55,0,0,1-.23-3.36c0-.44,0-.68.06-1l0-.12a.68.68,0,0,0,0-.14l0-.34a24.19,24.19,0,0,1,.83-3.56,1.55,1.55,0,0,0-1-2,1.57,1.57,0,0,0-2,.91,14.81,14.81,0,0,0-.71,2.23,19,19,0,0,0-.47,3.29,20.2,20.2,0,0,0,.81,7.21,22.81,22.81,0,0,0,2.15,4.84c.34.48.66,1,1,1.43a21.88,21.88,0,0,0,4.47,4.39,18.32,18.32,0,0,0,3.77,2.1,20.2,20.2,0,0,0,19.94-2.34,22,22,0,0,0,3.62-3.41l.14-.18a.27.27,0,0,1,.13-.15.2.2,0,0,1,.13-.16.58.58,0,0,1,.18-.25l.1-.13.28-.4a.21.21,0,0,1,.11-.15l.16-.26.12-.17.15-.23a.36.36,0,0,1,.13-.22c.2-.36.42-.71.6-1.08a20.59,20.59,0,0,0,2.14-6.64A20.14,20.14,0,0,0,860.06,232.24Z"/><polygon class="cls-21" points="856.46 250.03 856.46 250.03 856.46 250.04 856.46 250.03"/><path class="cls-21" d="M830.1,226.15h0a7.26,7.26,0,0,0-1.24,1.31h0l-.2.24a15.38,15.38,0,0,0-3,6.45,15.18,15.18,0,0,0-.05,6,1.17,1.17,0,0,0,1.59.86c.57-.23.8-.73.7-1.5a9.52,9.52,0,0,1-.12-1.31,13.21,13.21,0,0,1,.23-2.94c.18-.79.36-1.57.61-2.34a11.25,11.25,0,0,1,1.21-2.46,12.54,12.54,0,0,1,2.22-2.7l1.39-1.17a14.9,14.9,0,0,1,5.49-2.39,3.46,3.46,0,0,0,1-.36,1,1,0,0,0,.29-1.4,1.31,1.31,0,0,0-1.38-.48,17.5,17.5,0,0,0-5.12,1.73A15.72,15.72,0,0,0,830.1,226.15Z"/><path class="cls-21" d="M824.78,228.61a1.64,1.64,0,0,0,1.75-.68,15.12,15.12,0,0,1,1.52-2,17.48,17.48,0,0,1,2.41-2.38,1.61,1.61,0,0,0,.55-1.71,1.46,1.46,0,0,0-2.28-.76,12.93,12.93,0,0,0-3.2,2.84c-.59.72-1.12,1.48-1.67,2.23a1.87,1.87,0,0,0-.26,1.13A1.64,1.64,0,0,0,824.78,228.61Z"/><path class="cls-21" d="M831.83,231.18a2.69,2.69,0,0,0-.33.63.79.79,0,0,0,.51,1,.87.87,0,0,0,1.12-.42,9.6,9.6,0,0,1,2.39-2.53.89.89,0,0,0,.22-1.33l-.07-.06a1,1,0,0,0-.67-.2h0a.9.9,0,0,0-.21.08h0a3.07,3.07,0,0,0-.74.49A12.47,12.47,0,0,0,831.83,231.18Z"/><path class="cls-21" d="M833.8,221.6a1.59,1.59,0,1,0-1.59-1.59A1.57,1.57,0,0,0,833.8,221.6Z"/><path class="cls-21" d="M830,234.74a1.21,1.21,0,0,0,0,.18h0v0c-.05.2-.09.41-.12.61a10.13,10.13,0,0,0-.18,1.91,13.4,13.4,0,0,0,1,4.77,11.69,11.69,0,0,0,1.48,2.62,11.31,11.31,0,0,0,1.67,1.72,11.82,11.82,0,0,0,3.29,2,.84.84,0,0,0,1.23-.72.81.81,0,0,0-.52-.83,10.08,10.08,0,0,1-1.59-.85,10.87,10.87,0,0,1-3.57-3.93,9.75,9.75,0,0,1-1.14-5.8c0-.5.21-1,.23-1.48a.78.78,0,0,0-.64-.84A.88.88,0,0,0,830,234.74Z"/><path class="cls-21" d="M839.49,248.21a.86.86,0,0,0,.85.88.87.87,0,0,0,.88-.84.87.87,0,0,0-1.73,0Z"/><g id="Page-1"><g id="Envoy_Logo_Final_PANTONE-REVERSE" data-name="Envoy Logo Final PANTONE-REVERSE"><polyline id="Fill-6" class="cls-30" points="191.27 193.45 191.37 197.62 195.76 200.35 195.66 196.17 191.27 193.45"/><g id="Group-10"><g class="cls-31"><path id="Fill-7" class="cls-30" d="M202,210.79l-.09-4.08-3.85-2.39-.17-.12.1,4.1,4,2.49"/></g><g class="cls-32"><path id="Fill-9" class="cls-30" d="M188.28,216.29l-10.05-6.22L178,199.62l4.92-2.12-.1-4.17L175,196.72a1.53,1.53,0,0,0-.95,1.46l.3,12.53a2.07,2.07,0,0,0,1,1.67l12.05,7.46a2.22,2.22,0,0,0,1.81.26,1.15,1.15,0,0,0,.17-.06l7.39-3.18-4-2.49-4.45,1.92"/></g></g><path id="Fill-11" class="cls-33" d="M220.73,193.21a2.44,2.44,0,0,0-1.2-1.94l-14.62-9.06-.46.19.11,4.39L216.14,194l.27,11.74,4.43,2.74.24-.1-.35-15.13"/><g id="Group-15"><g class="cls-34"><path id="Fill-12" class="cls-33" d="M203.21,213.81l-13.58-8.42-.34-14.13,6.19-2.67-.11-4.87-9.61,4.15a1.76,1.76,0,0,0-1.11,1.7l.39,16.57a2.38,2.38,0,0,0,1.2,1.94L202.16,218a2.58,2.58,0,0,0,2.11.31l.2-.08,9.41-4.05-4.68-2.9-6,2.58"/></g><g class="cls-35"><path id="Fill-14" class="cls-36" d="M220.68,210.6l-17.74-11-.44-18.46,17.31-7.46,17.74,11,.44,18.46Zm20.75-29L221,169a3,3,0,0,0-2.42-.34l-.23.08-19.91,8.59a2,2,0,0,0-1.27,1.95l.5,21.24a2.74,2.74,0,0,0,1.37,2.21l20.42,12.66a3,3,0,0,0,2.41.35l.23-.09L242,207a2.06,2.06,0,0,0,1.27-2l-.5-21.23a2.77,2.77,0,0,0-1.38-2.22Z"/></g></g></g></g><line class="cls-12" x1="114.18" y1="208.48" x2="143.97" y2="208.48"/><line class="cls-12" x1="144.97" y1="208.48" x2="139.04" y2="202.55"/><line class="cls-12" x1="144.97" y1="208.48" x2="139.04" y2="214.41"/><line class="cls-12" x1="821.18" y1="276.98" x2="776.92" y2="276.98"/><line class="cls-12" x1="755.67" y1="219.86" x2="712.33" y2="219.86"/><line class="cls-12" x1="712.33" y1="219.86" x2="718.26" y2="225.79"/><line class="cls-12" x1="712.33" y1="219.86" x2="718.26" y2="213.93"/><path class="cls-20" d="M755.67,219.86a10.63,10.63,0,0,1,10.63,10.63"/><path class="cls-20" d="M776.92,277a10.61,10.61,0,0,1-10.62-10.62"/><line class="cls-20" x1="766.3" y1="230.49" x2="766.3" y2="266.3"/><line class="cls-12" x1="822.17" y1="276.93" x2="816.24" y2="282.86"/><line class="cls-12" x1="822.17" y1="276.93" x2="816.24" y2="270.99"/><path class="cls-18" d="M100.08,85c0-4,2.18-6.9,5.6-6.9a4.71,4.71,0,0,1,4.5,3.2l-2.22,1a2.46,2.46,0,0,0-2.28-1.8c-1.76,0-2.84,1.9-2.84,4.52s1.08,4.52,2.84,4.52a2.52,2.52,0,0,0,2.3-1.94l2.22,1a4.73,4.73,0,0,1-4.52,3.36C102.26,91.91,100.08,89.05,100.08,85Z"/><path class="cls-18" d="M117.1,90.45a3.53,3.53,0,0,1-2.84,1.46,2.31,2.31,0,0,1-2.58-2.6V82h2.4v6.38c0,1,.48,1.4,1.28,1.4a2.12,2.12,0,0,0,1.74-1.18V82h2.4v9.66h-2.4Z"/><path class="cls-18" d="M121.94,88.85A4,4,0,0,0,124.6,90c.92,0,1.42-.38,1.42-1s-.74-.94-1.66-1.24c-1.36-.44-3.12-1-3.12-3.12,0-1.56,1.26-2.9,3.52-2.9A5,5,0,0,1,128.12,83l-1,1.62a3.28,3.28,0,0,0-2.36-1c-.76,0-1.28.36-1.28.9s.66.86,1.56,1.14c1.4.44,3.24,1,3.24,3.24,0,1.74-1.42,3-3.68,3a5.11,5.11,0,0,1-3.72-1.38Z"/><path class="cls-18" d="M130.32,89.35V84.11h-1.26V82h1.26V79.37h2.4V82h1.6v2.1h-1.6v4.68c0,.62.24,1,.7,1a1,1,0,0,0,.72-.28l.5,1.84a2.78,2.78,0,0,1-1.86.56C131.1,91.91,130.32,91.05,130.32,89.35Z"/><path class="cls-18" d="M135.36,86.83c0-2.7,1.52-5.06,4.36-5.06s4.38,2.36,4.38,5.06-1.5,5.08-4.38,5.08S135.36,89.55,135.36,86.83Zm6.26,0c0-1.58-.58-2.94-1.9-2.94s-1.86,1.36-1.86,2.94.58,3,1.86,3S141.62,88.43,141.62,86.83Z"/><path class="cls-18" d="M156.08,85.17c0-.8-.34-1.28-1.1-1.28a2.11,2.11,0,0,0-1.66,1.2v6.58h-2.4v-6.5c0-.78-.32-1.28-1.1-1.28a2.14,2.14,0,0,0-1.66,1.2v6.58h-2.4V82h2.4v1.26a3.42,3.42,0,0,1,2.72-1.5,2.17,2.17,0,0,1,2.34,1.68A3.43,3.43,0,0,1,156,81.77a2.24,2.24,0,0,1,2.44,2.56v7.34h-2.4Z"/><path class="cls-18" d="M164.46,81.77c2.66,0,4.16,2.16,4.16,5.16v.68h-6.06A2.3,2.3,0,0,0,164.9,90,2.92,2.92,0,0,0,167,89l1.1,1.44a4.71,4.71,0,0,1-3.46,1.44c-2.72,0-4.5-2-4.5-5.08C160.14,84,161.78,81.77,164.46,81.77Zm-1.9,4.2h3.74c0-1-.48-2.26-1.88-2.26S162.6,85,162.56,86Z"/><path class="cls-18" d="M170.22,82h2.4v1.34a3.29,3.29,0,0,1,2.64-1.56v2.34a2.46,2.46,0,0,0-.58-.06,2.67,2.67,0,0,0-2.06,1.16v6.44h-2.4Z"/><path class="cls-18" d="M176.68,82.87a3.5,3.5,0,0,0,1.5-1.9,1.32,1.32,0,0,1-.36.06,1.29,1.29,0,0,1-1.3-1.38,1.52,1.52,0,0,1,1.5-1.52,1.78,1.78,0,0,1,1.7,2,4.44,4.44,0,0,1-2,3.6Z"/><path class="cls-18" d="M181.32,88.85A4,4,0,0,0,184,90c.92,0,1.42-.38,1.42-1s-.74-.94-1.66-1.24c-1.36-.44-3.12-1-3.12-3.12,0-1.56,1.26-2.9,3.52-2.9A5,5,0,0,1,187.5,83l-1,1.62a3.28,3.28,0,0,0-2.36-1c-.76,0-1.28.36-1.28.9s.66.86,1.56,1.14c1.4.44,3.24,1,3.24,3.24,0,1.74-1.42,3-3.68,3a5.11,5.11,0,0,1-3.72-1.38Z"/><path class="cls-18" d="M193,85c0-4,2.18-6.9,5.6-6.9a4.71,4.71,0,0,1,4.5,3.2l-2.22,1a2.46,2.46,0,0,0-2.28-1.8c-1.76,0-2.84,1.9-2.84,4.52s1.08,4.52,2.84,4.52a2.52,2.52,0,0,0,2.3-1.94l2.22,1a4.73,4.73,0,0,1-4.52,3.36C195.22,91.91,193,89.05,193,85Z"/><path class="cls-18" d="M204.64,78.33H207V91.67h-2.4Z"/><path class="cls-18" d="M214.62,90.45a3.53,3.53,0,0,1-2.84,1.46,2.31,2.31,0,0,1-2.58-2.6V82h2.4v6.38c0,1,.48,1.4,1.28,1.4a2.12,2.12,0,0,0,1.74-1.18V82H217v9.66h-2.4Z"/><path class="cls-18" d="M219.46,88.85A4,4,0,0,0,222.12,90c.92,0,1.42-.38,1.42-1s-.74-.94-1.66-1.24c-1.36-.44-3.12-1-3.12-3.12,0-1.56,1.26-2.9,3.52-2.9A5,5,0,0,1,225.64,83l-1,1.62a3.28,3.28,0,0,0-2.36-1c-.76,0-1.28.36-1.28.9s.66.86,1.56,1.14c1.4.44,3.24,1,3.24,3.24,0,1.74-1.42,3-3.68,3a5.11,5.11,0,0,1-3.72-1.38Z"/><path class="cls-18" d="M227.84,89.35V84.11h-1.26V82h1.26V79.37h2.4V82h1.6v2.1h-1.6v4.68c0,.62.24,1,.7,1a1,1,0,0,0,.72-.28l.5,1.84a2.78,2.78,0,0,1-1.86.56C228.62,91.91,227.84,91.05,227.84,89.35Z"/><path class="cls-18" d="M237.2,81.77c2.66,0,4.16,2.16,4.16,5.16v.68H235.3A2.3,2.3,0,0,0,237.64,90a2.92,2.92,0,0,0,2.1-.94l1.1,1.44a4.71,4.71,0,0,1-3.46,1.44c-2.72,0-4.5-2-4.5-5.08C232.88,84,234.52,81.77,237.2,81.77ZM235.3,86H239c0-1-.48-2.26-1.88-2.26S235.34,85,235.3,86Z"/><path class="cls-18" d="M243,82h2.4v1.34A3.29,3.29,0,0,1,248,81.79v2.34a2.46,2.46,0,0,0-.58-.06,2.67,2.67,0,0,0-2.06,1.16v6.44H243Z"/><path class="cls-18" d="M253.08,85.81h9.34v2h-9.34Z"/><path class="cls-18" d="M100.88,108.13a4.36,4.36,0,0,0,3.2,1.42c1.2,0,1.84-.66,1.84-1.48,0-1-1-1.46-2.18-2-1.68-.66-3.78-1.46-3.78-4.1,0-2.1,1.64-3.88,4.4-3.88a5.77,5.77,0,0,1,4,1.48l-1.28,2a4.08,4.08,0,0,0-2.82-1.12c-1,0-1.6.56-1.6,1.36s.92,1.32,2.12,1.82c1.72.68,3.82,1.56,3.82,4.2,0,2.34-1.6,4.06-4.52,4.06a6.16,6.16,0,0,1-4.56-1.72Z"/><path class="cls-18" d="M114.1,101.77c2.66,0,4.16,2.16,4.16,5.16v.68H112.2a2.3,2.3,0,0,0,2.34,2.36,2.92,2.92,0,0,0,2.1-.94l1.1,1.44a4.71,4.71,0,0,1-3.46,1.44c-2.72,0-4.5-2-4.5-5.08C109.78,104,111.42,101.77,114.1,101.77Zm-1.9,4.2h3.74c0-1-.48-2.26-1.88-2.26S112.24,105,112.2,106Z"/><path class="cls-18" d="M119.86,98.33h2.4v13.34h-2.4Z"/><path class="cls-18" d="M128.24,101.77c2.66,0,4.16,2.16,4.16,5.16v.68h-6.06a2.3,2.3,0,0,0,2.34,2.36,2.92,2.92,0,0,0,2.1-.94l1.1,1.44a4.71,4.71,0,0,1-3.46,1.44c-2.72,0-4.5-2-4.5-5.08C123.92,104,125.56,101.77,128.24,101.77Zm-1.9,4.2h3.74c0-1-.48-2.26-1.88-2.26S126.38,105,126.34,106Z"/><path class="cls-18" d="M137.92,101.77a3.85,3.85,0,0,1,3.08,1.3l-1.2,1.66a2,2,0,0,0-1.62-.84c-1.38,0-2.2,1.26-2.2,2.94s.82,3,2.2,3a2,2,0,0,0,1.62-.84l1.2,1.66a3.85,3.85,0,0,1-3.08,1.3c-2.66,0-4.42-2.12-4.42-5.08S135.26,101.77,137.92,101.77Z"/><path class="cls-18" d="M142.84,109.35v-5.24h-1.26V102h1.26V99.37h2.4V102h1.6v2.1h-1.6v4.68c0,.62.24,1,.7,1a1,1,0,0,0,.72-.28l.5,1.84a2.78,2.78,0,0,1-1.86.56C143.62,111.91,142.84,111.05,142.84,109.35Z"/><path class="cls-18" d="M152.2,101.77c2.66,0,4.16,2.16,4.16,5.16v.68H150.3a2.3,2.3,0,0,0,2.34,2.36,2.92,2.92,0,0,0,2.1-.94l1.1,1.44a4.71,4.71,0,0,1-3.46,1.44c-2.72,0-4.5-2-4.5-5.08C147.88,104,149.52,101.77,152.2,101.77Zm-1.9,4.2H154c0-1-.48-2.26-1.88-2.26S150.34,105,150.3,106Z"/><path class="cls-18" d="M163.48,110.45a2.9,2.9,0,0,1-2.44,1.46c-2.18,0-3.58-1.9-3.58-5.06s1.4-5.08,3.58-5.08a2.82,2.82,0,0,1,2.44,1.46v-4.9h2.4v13.34h-2.4Zm0-5.42a2,2,0,0,0-1.68-1.14c-1.22,0-1.86,1.26-1.86,3s.64,2.94,1.86,2.94a2,2,0,0,0,1.68-1.14Z"/><path class="cls-18" d="M175,103.17v8.5h-2.66V98.33h2.72l4.38,8.16V98.33h2.68v13.34h-2.56Z"/><path class="cls-18" d="M189.36,110.71a3.17,3.17,0,0,1-2.54,1.2,3,3,0,0,1-3-3.2,2.89,2.89,0,0,1,3-3.12,3.07,3.07,0,0,1,2.54,1.14v-1.28a1.59,1.59,0,0,0-1.78-1.68,3.38,3.38,0,0,0-2.38,1l-.9-1.64a5.48,5.48,0,0,1,3.72-1.4c2.1,0,3.76.94,3.76,3.42v6.48h-2.42Zm0-2.58a1.87,1.87,0,0,0-1.62-.94,1.45,1.45,0,0,0-1.5,1.56,1.44,1.44,0,0,0,1.5,1.54,1.81,1.81,0,0,0,1.62-.92Z"/><path class="cls-18" d="M204.26,105.17c0-.8-.34-1.28-1.1-1.28a2.11,2.11,0,0,0-1.66,1.2v6.58h-2.4v-6.5c0-.78-.32-1.28-1.1-1.28a2.14,2.14,0,0,0-1.66,1.2v6.58h-2.4V102h2.4v1.26a3.42,3.42,0,0,1,2.72-1.5,2.17,2.17,0,0,1,2.34,1.68,3.43,3.43,0,0,1,2.82-1.68,2.24,2.24,0,0,1,2.44,2.56v7.34h-2.4Z"/><path class="cls-18" d="M212.64,101.77c2.66,0,4.16,2.16,4.16,5.16v.68h-6.06a2.3,2.3,0,0,0,2.34,2.36,2.92,2.92,0,0,0,2.1-.94l1.1,1.44a4.71,4.71,0,0,1-3.46,1.44c-2.72,0-4.5-2-4.5-5.08C208.32,104,210,101.77,212.64,101.77Zm-1.9,4.2h3.74c0-1-.48-2.26-1.88-2.26S210.78,105,210.74,106Z"/><path class="cls-18" d="M218.68,108.85a4,4,0,0,0,2.66,1.18c.92,0,1.42-.38,1.42-1s-.74-.94-1.66-1.24c-1.36-.44-3.12-1-3.12-3.12,0-1.56,1.26-2.9,3.52-2.9a5,5,0,0,1,3.36,1.24l-1,1.62a3.28,3.28,0,0,0-2.36-1c-.76,0-1.28.36-1.28.9s.66.86,1.56,1.14c1.4.44,3.24,1,3.24,3.24,0,1.74-1.42,3-3.68,3a5.11,5.11,0,0,1-3.72-1.38Z"/><path class="cls-18" d="M226.64,115.35V102H229v1.22a2.88,2.88,0,0,1,2.44-1.46c2.18,0,3.58,1.9,3.58,5.06s-1.4,5.08-3.58,5.08a2.82,2.82,0,0,1-2.44-1.46v4.9Zm4.06-11.46A2,2,0,0,0,229,105v3.64a2.08,2.08,0,0,0,1.66,1.14c1.24,0,1.88-1.26,1.88-3S231.94,103.89,230.7,103.89Z"/><path class="cls-18" d="M241.72,110.71a3.17,3.17,0,0,1-2.54,1.2,3,3,0,0,1-3-3.2,2.89,2.89,0,0,1,3-3.12,3.07,3.07,0,0,1,2.54,1.14v-1.28a1.59,1.59,0,0,0-1.78-1.68,3.38,3.38,0,0,0-2.38,1l-.9-1.64a5.48,5.48,0,0,1,3.72-1.4c2.1,0,3.76.94,3.76,3.42v6.48h-2.42Zm0-2.58a1.87,1.87,0,0,0-1.62-.94,1.45,1.45,0,0,0-1.5,1.56,1.44,1.44,0,0,0,1.5,1.54,1.81,1.81,0,0,0,1.62-.92Z"/><path class="cls-18" d="M250.22,101.77a3.85,3.85,0,0,1,3.08,1.3l-1.2,1.66a2,2,0,0,0-1.62-.84c-1.38,0-2.2,1.26-2.2,2.94s.82,3,2.2,3a2,2,0,0,0,1.62-.84l1.2,1.66a3.85,3.85,0,0,1-3.08,1.3c-2.66,0-4.42-2.12-4.42-5.08S247.56,101.77,250.22,101.77Z"/><path class="cls-18" d="M258.54,101.77c2.66,0,4.16,2.16,4.16,5.16v.68h-6.06A2.3,2.3,0,0,0,259,110a2.92,2.92,0,0,0,2.1-.94l1.1,1.44a4.71,4.71,0,0,1-3.46,1.44c-2.72,0-4.5-2-4.5-5.08C254.22,104,255.86,101.77,258.54,101.77Zm-1.9,4.2h3.74c0-1-.48-2.26-1.88-2.26S256.68,105,256.64,106Z"/><line class="cls-20" x1="641.39" y1="411.81" x2="584.75" y2="411.81"/><line class="cls-12" x1="277.97" y1="225.77" x2="317.22" y2="225.77"/><line class="cls-20" x1="327.85" y1="236.4" x2="327.85" y2="395.87"/><path class="cls-20" d="M343.79,411.81a15.94,15.94,0,0,1-15.94-15.94"/><path class="cls-20" d="M657.34,395.87a16,16,0,0,1-16,15.94"/><line class="cls-12" x1="277.31" y1="225.77" x2="283.24" y2="231.71"/><line class="cls-12" x1="277.31" y1="225.77" x2="283.24" y2="219.84"/><path class="cls-20" d="M317.22,225.77a10.63,10.63,0,0,1,10.63,10.63"/><line class="cls-12" x1="657.34" y1="286.01" x2="657.34" y2="395.87"/><line class="cls-12" x1="657.14" y1="283.63" x2="651.21" y2="289.56"/><line class="cls-12" x1="657.14" y1="283.63" x2="663.08" y2="289.56"/><path class="cls-18" d="M411,412.17h-1.48v4.54h-2v-12h4.14a3.42,3.42,0,0,1,3.49,3.7,3.23,3.23,0,0,1-2.22,3.43l2.33,4.88h-2.23Zm.38-5.73h-1.86v4h1.86a2,2,0,0,0,0-4Z"/><path class="cls-18" d="M417.13,404.7h6.57v1.74h-4.57v3.26h4.45v1.77h-4.45v3.47h4.57v1.77h-6.57Z"/><path class="cls-18" d="M425.62,404.7h3.59c3.22,0,5.06,2.52,5.06,6s-1.82,6-5.06,6h-3.59Zm3.59,10.24c2,0,3-1.76,3-4.23s-1-4.27-3-4.27h-1.59v8.5Z"/><path class="cls-18" d="M448.51,408l-2.92,8.74h-.78L441.93,408v8.74h-2v-12h2.71l2.57,7.76,2.59-7.76h2.69v12h-2Z"/><path class="cls-18" d="M456,407.79c2.36,0,3.62,2,3.62,4.63v.52h-5.52a2.31,2.31,0,0,0,2.26,2.5,2.7,2.7,0,0,0,2-.93l.86,1.08a4,4,0,0,1-3,1.33c-2.39,0-3.9-1.87-3.9-4.57C452.25,409.83,453.65,407.79,456,407.79Zm-1.92,3.87h3.8c0-1.08-.51-2.41-1.89-2.41S454.1,410.62,454.05,411.66Z"/><path class="cls-18" d="M461.53,414.76v-5.18H460.4V408h1.13v-2.38h1.8V408h1.45v1.57h-1.45v4.8c0,.6.2,1,.67,1a.92.92,0,0,0,.69-.29l.43,1.35a2.16,2.16,0,0,1-1.57.52C462.18,416.92,461.53,416.18,461.53,414.76Z"/><path class="cls-18" d="M466.3,408h1.8v1.28a2.93,2.93,0,0,1,2.4-1.48v1.78a2.34,2.34,0,0,0-.47,0,2.44,2.44,0,0,0-1.93,1.21v6h-1.8Z"/><path class="cls-18" d="M471.61,405.45a1.14,1.14,0,0,1,1.14-1.13,1.13,1.13,0,0,1,0,2.25A1.15,1.15,0,0,1,471.61,405.45Zm.24,2.56h1.8v8.7h-1.8Z"/><path class="cls-18" d="M479.16,407.79A3.2,3.2,0,0,1,481.8,409l-.91,1.23a1.85,1.85,0,0,0-1.55-.81c-1.37,0-2.15,1.31-2.15,3s.78,3,2.15,3a1.9,1.9,0,0,0,1.55-.81l.91,1.22a3.2,3.2,0,0,1-2.64,1.17c-2.33,0-3.82-1.94-3.82-4.57S476.83,407.79,479.16,407.79Z"/><path class="cls-18" d="M483.37,414.42a3.4,3.4,0,0,0,2.34,1.08c.9,0,1.44-.41,1.44-1.08s-.76-1.05-1.64-1.37c-1.22-.43-2.66-.95-2.66-2.77,0-1.35,1.08-2.49,3-2.49a4,4,0,0,1,2.87,1.12l-.76,1.22a2.74,2.74,0,0,0-2.07-.91c-.81,0-1.33.39-1.33.95s.72.95,1.58,1.26c1.25.45,2.74,1,2.74,2.9,0,1.49-1.21,2.59-3.12,2.59a4.25,4.25,0,0,1-3.18-1.24Z"/><path class="cls-18" d="M496.38,406.44h-2.75V404.7h7.49v1.74h-2.76v10.27h-2Z"/><path class="cls-18" d="M501.62,408h1.8v1.28a2.9,2.9,0,0,1,2.4-1.48v1.78a2.16,2.16,0,0,0-2.4,1.16v6h-1.8Z"/><path class="cls-18" d="M511.66,415.82a2.8,2.8,0,0,1-2.28,1.1,2.68,2.68,0,0,1-2.67-2.9,2.6,2.6,0,0,1,2.67-2.82,2.78,2.78,0,0,1,2.28,1V411a1.53,1.53,0,0,0-1.69-1.66,3,3,0,0,0-2.16,1l-.7-1.26a4.49,4.49,0,0,1,3.19-1.26c1.82,0,3.15.85,3.15,3v5.95h-1.79Zm0-2.41a1.9,1.9,0,0,0-1.63-1,1.62,1.62,0,0,0,0,3.24,1.92,1.92,0,0,0,1.63-.95Z"/><path class="cls-18" d="M515.93,409.58h-1.14V408h1.14v-.81c0-1.73,1-2.68,2.36-2.68a2.94,2.94,0,0,1,1.31.27l-.36,1.38a1.2,1.2,0,0,0-.56-.12c-.59,0-.95.39-.95,1.15V408h1.44v1.57h-1.44v7.13h-1.8Zm4.93,0h-1.13V408h1.13v-.81c0-1.73,1-2.68,2.36-2.68a2.75,2.75,0,0,1,1.32.28l-.38,1.39a.83.83,0,0,0-.56-.16c-.58,0-.94.41-.94,1.17V408h1.44v1.57h-1.44v7.13h-1.8Zm4.32-4.13a1.14,1.14,0,0,1,1.14-1.13,1.13,1.13,0,0,1,0,2.25A1.15,1.15,0,0,1,525.18,405.45Zm.24,2.56h1.8v8.7h-1.8Z"/><path class="cls-18" d="M532.72,407.79a3.21,3.21,0,0,1,2.65,1.17l-.92,1.23a1.83,1.83,0,0,0-1.55-.81c-1.36,0-2.14,1.31-2.14,3s.78,3,2.14,3a1.88,1.88,0,0,0,1.55-.81l.92,1.22a3.21,3.21,0,0,1-2.65,1.17c-2.32,0-3.81-1.94-3.81-4.57S530.4,407.79,532.72,407.79Z"/><path class="cls-18" d="M544.19,412.17h-1.48v4.54h-2v-12h4.15a3.42,3.42,0,0,1,3.49,3.7,3.23,3.23,0,0,1-2.22,3.43l2.33,4.88h-2.24Zm.38-5.73h-1.86v4h1.86a2,2,0,0,0,0-4Z"/><path class="cls-18" d="M554.45,415.82a2.81,2.81,0,0,1-2.29,1.1,2.67,2.67,0,0,1-2.66-2.9,2.6,2.6,0,0,1,2.66-2.82,2.79,2.79,0,0,1,2.29,1V411a1.53,1.53,0,0,0-1.69-1.66,2.93,2.93,0,0,0-2.16,1l-.71-1.26a4.53,4.53,0,0,1,3.19-1.26c1.82,0,3.15.85,3.15,3v5.95h-1.78Zm0-2.41a1.9,1.9,0,0,0-1.64-1,1.62,1.62,0,0,0,0,3.24,1.92,1.92,0,0,0,1.64-.95Z"/><path class="cls-18" d="M567.43,410.66c0-.81-.32-1.28-1.08-1.28a2.09,2.09,0,0,0-1.66,1.2v6.13h-1.8v-6c0-.8-.32-1.28-1.08-1.28a2.09,2.09,0,0,0-1.65,1.2v6.13h-1.81V408h1.81v1.17a3,3,0,0,1,2.41-1.39,1.88,1.88,0,0,1,2,1.53,3,3,0,0,1,2.51-1.53c1.31,0,2.12.7,2.12,2.29v6.63h-1.8Z"/><path class="cls-18" d="M571.35,420V408h1.8v1.15a2.64,2.64,0,0,1,2.23-1.37c2,0,3.17,1.75,3.17,4.56s-1.2,4.57-3.17,4.57a2.54,2.54,0,0,1-2.23-1.38V420Zm3.49-10.64a2,2,0,0,0-1.69,1.19v3.56a2.07,2.07,0,0,0,1.69,1.21c1.25,0,1.86-1.32,1.86-3S576.09,409.38,574.84,409.38Z"/><line class="cls-20" x1="401.13" y1="411.81" x2="343.79" y2="411.81"/></g></svg>